<svg id="图层_1" data-name="图层 1" xmlns="http://www.w3.org/2000/svg" xmlns:xlink="http://www.w3.org/1999/xlink" viewBox="0 0 185.25 152.96"><defs><style>.cls-1,.cls-11,.cls-17,.cls-18,.cls-19,.cls-20,.cls-22,.cls-39,.cls-45,.cls-47,.cls-48,.cls-5,.cls-6,.cls-7,.cls-8{fill:none;}.cls-2{clip-path:url(#clip-path);}.cls-3{fill:#fff;}.cls-4{clip-path:url(#clip-path-2);}.cls-11,.cls-17,.cls-18,.cls-20,.cls-22,.cls-5,.cls-6,.cls-8{stroke:#000;}.cls-11,.cls-17,.cls-18,.cls-19,.cls-22,.cls-5,.cls-6,.cls-7{stroke-linejoin:round;}.cls-5{stroke-width:0.12px;}.cls-17,.cls-5{stroke-dasharray:0.45 0.19;opacity:0.7;}.cls-6,.cls-7{stroke-width:0.4px;}.cls-19,.cls-7{stroke:gray;}.cls-19,.cls-20,.cls-7,.cls-8{stroke-linecap:square;}.cls-20,.cls-45,.cls-47,.cls-8{stroke-miterlimit:10;}.cls-8{stroke-width:0.3px;}.cls-9{clip-path:url(#clip-path-15);}.cls-10{fill:#1f77b4;}.cls-11{stroke-width:0.2px;}.cls-12{clip-path:url(#clip-path-16);}.cls-13{clip-path:url(#clip-path-17);}.cls-14{clip-path:url(#clip-path-18);}.cls-15{clip-path:url(#clip-path-19);}.cls-16{clip-path:url(#clip-path-20);}.cls-17{stroke-width:0.12px;}.cls-18,.cls-19{stroke-width:0.4px;}.cls-20{stroke-width:0.3px;}.cls-21{clip-path:url(#clip-path-33);}.cls-22{stroke-width:0.2px;}.cls-23{clip-path:url(#clip-path-34);}.cls-24{clip-path:url(#clip-path-35);}.cls-25{clip-path:url(#clip-path-36);}.cls-26{clip-path:url(#clip-path-37);}.cls-27{opacity:0.8;}.cls-28{clip-path:url(#clip-path-40);}.cls-29{fill:#efefef;}.cls-30{fill:#c1c0c0;}.cls-31{font-size:3.42px;}.cls-31,.cls-32,.cls-33,.cls-34,.cls-36,.cls-38,.cls-40,.cls-41,.cls-43,.cls-49,.cls-50,.cls-52{fill:#040000;}.cls-31,.cls-36,.cls-38,.cls-43,.cls-50,.cls-52,.cls-54,.cls-56,.cls-57{font-family:TimesNewRomanPSMT, Times New Roman;}.cls-32{font-size:4.32px;font-family:MicrosoftYaHei-Bold, Microsoft YaHei;}.cls-32,.cls-34,.cls-40,.cls-49{font-weight:700;}.cls-33,.cls-34,.cls-36,.cls-40,.cls-41,.cls-49{font-size:2.16px;}.cls-33,.cls-41{font-family:CourierNewPSMT, Courier New;}.cls-34,.cls-49{font-family:CourierNewPS-BoldMT, Courier New;}.cls-35,.cls-41,.cls-49{letter-spacing:-0.01em;}.cls-37{letter-spacing:0em;}.cls-38{font-size:1.76px;}.cls-39{stroke:#040000;}.cls-39,.cls-48{stroke-miterlimit:8;}.cls-39,.cls-47{stroke-width:0.32px;}.cls-40{font-family:TimesNewRomanPS-BoldMT, Times New Roman;}.cls-42{letter-spacing:0em;}.cls-43{font-size:5.18px;}.cls-44{fill:#404041;}.cls-45{stroke:#c1c0c0;stroke-width:0.43px;}.cls-46,.cls-54{fill:#231815;}.cls-47{stroke:#231815;}.cls-48{stroke:#7e7e7f;stroke-width:0.65px;}.cls-50,.cls-52,.cls-54{font-size:3.02px;}.cls-50{letter-spacing:0em;}.cls-51{letter-spacing:0em;}.cls-52{letter-spacing:0em;}.cls-53{letter-spacing:0em;}.cls-55{letter-spacing:0em;}.cls-56,.cls-57{font-size:5px;}.cls-56{letter-spacing:-0.06em;}</style><clipPath id="clip-path" transform="translate(-2.82 -9.15)"><rect class="cls-1" x="94.68" y="92.53" width="93.38" height="69.58"/></clipPath><clipPath id="clip-path-2" transform="translate(-2.82 -9.15)"><rect class="cls-1" x="106.69" y="98.67" width="79.18" height="54.25"/></clipPath><clipPath id="clip-path-15" transform="translate(-2.82 -9.15)"><rect class="cls-1" x="108.26" y="124.78" width="4.05" height="4.03"/></clipPath><clipPath id="clip-path-16" transform="translate(-2.82 -9.15)"><rect class="cls-1" x="132.26" y="129.14" width="4.05" height="4.03"/></clipPath><clipPath id="clip-path-17" transform="translate(-2.82 -9.15)"><rect class="cls-1" x="156.25" y="131.75" width="4.05" height="4.03"/></clipPath><clipPath id="clip-path-18" transform="translate(-2.82 -9.15)"><rect class="cls-1" x="180.25" y="134.74" width="4.05" height="4.03"/></clipPath><clipPath id="clip-path-19" transform="translate(-2.82 -9.15)"><rect class="cls-1" x="2.82" y="92.53" width="93.38" height="69.58"/></clipPath><clipPath id="clip-path-20" transform="translate(-2.82 -9.15)"><rect class="cls-1" x="14.82" y="98.67" width="78.64" height="54.25"/></clipPath><clipPath id="clip-path-33" transform="translate(-2.82 -9.15)"><rect class="cls-1" x="16.37" y="97.9" width="4.05" height="4.03"/></clipPath><clipPath id="clip-path-34" transform="translate(-2.82 -9.15)"><rect class="cls-1" x="40.2" y="112.48" width="4.05" height="4.03"/></clipPath><clipPath id="clip-path-35" transform="translate(-2.82 -9.15)"><rect class="cls-1" x="64.03" y="124.78" width="4.05" height="4.03"/></clipPath><clipPath id="clip-path-36" transform="translate(-2.82 -9.15)"><rect class="cls-1" x="87.86" y="131.54" width="4.05" height="4.03"/></clipPath><clipPath id="clip-path-37" transform="translate(-2.82 -9.15)"><rect class="cls-1" x="7" y="8.08" width="176.34" height="83.28"/></clipPath><clipPath id="clip-path-40" transform="translate(-2.82 -9.15)"><rect class="cls-1" x="54.33" y="21.46" width="121.42" height="2.2"/></clipPath></defs><title>preprocessAndRAM_memory_usage</title><g class="cls-2"><rect class="cls-3" x="91.87" y="83.38" width="93.38" height="69.58"/><rect class="cls-3" x="103.87" y="89.52" width="79.18" height="54.25"/><g class="cls-4"><line class="cls-5" x1="107.47" y1="143.77" x2="107.47" y2="89.52"/></g><line x1="107.47" y1="143.77" x2="107.47" y2="142.56"/><line class="cls-6" x1="107.47" y1="143.77" x2="107.47" y2="142.56"/><polygon points="106.23 146.11 106.62 146.11 106.62 144.76 106.19 144.85 106.19 144.63 106.62 144.55 106.86 144.55 106.86 146.11 107.25 146.11 107.25 146.31 106.23 146.31 106.23 146.11"/><path d="M111.06,153.67a.52.52,0,0,1,.46.24,1.23,1.23,0,0,1,.15.67,1.25,1.25,0,0,1-.15.68.56.56,0,0,1-.92,0,1.25,1.25,0,0,1-.15-.68,1.23,1.23,0,0,1,.15-.67A.52.52,0,0,1,111.06,153.67Zm0,.19a.3.3,0,0,0-.28.18,1.25,1.25,0,0,0-.09.54,1.27,1.27,0,0,0,.09.55.31.31,0,0,0,.56,0,1.27,1.27,0,0,0,.09-.55,1.25,1.25,0,0,0-.09-.54A.3.3,0,0,0,111.06,153.86Z" transform="translate(-2.82 -9.15)"/><g class="cls-4"><line class="cls-5" x1="131.47" y1="143.77" x2="131.47" y2="89.52"/></g><line x1="131.47" y1="143.77" x2="131.47" y2="142.56"/><line class="cls-6" x1="131.47" y1="143.77" x2="131.47" y2="142.56"/><path d="M134,154.15a.26.26,0,0,0,.09.21.32.32,0,0,0,.24.08.29.29,0,0,0,.24-.08.29.29,0,0,0,0-.42.33.33,0,0,0-.24-.08.36.36,0,0,0-.24.08A.26.26,0,0,0,134,154.15Zm.09.38a.49.49,0,0,1-.24-.15.36.36,0,0,1-.08-.25.43.43,0,0,1,.15-.34.65.65,0,0,1,.41-.12.66.66,0,0,1,.42.12.43.43,0,0,1,.15.34.37.37,0,0,1-.09.25.17.17,0,1,0,0,.3.43.43,0,0,1,.1.29.47.47,0,0,1-.16.39.65.65,0,0,1-.45.14.69.69,0,0,1-.45-.14.5.5,0,0,1-.15-.39.48.48,0,0,1,.09-.29A.52.52,0,0,1,134,154.53Zm.24.1a.4.4,0,0,0-.27.09.39.39,0,0,0,0,.5.45.45,0,0,0,.54,0,.36.36,0,0,0,0-.5A.37.37,0,0,0,134.28,154.63Z" transform="translate(-2.82 -9.15)"/><g class="cls-4"><line class="cls-5" x1="155.46" y1="143.77" x2="155.46" y2="89.52"/></g><line x1="155.46" y1="143.77" x2="155.46" y2="142.56"/><line class="cls-6" x1="155.46" y1="143.77" x2="155.46" y2="142.56"/><path d="M158.78,153.74V154l-.18-.07-.18,0a.47.47,0,0,0-.37.16.88.88,0,0,0-.14.48.43.43,0,0,1,.18-.15.46.46,0,0,1,.23-.06.57.57,0,0,1,.42.16.64.64,0,0,1,.16.44.58.58,0,0,1-.17.43.56.56,0,0,1-.42.17.52.52,0,0,1-.47-.24,1.15,1.15,0,0,1-.17-.68,1,1,0,0,1,.2-.66.69.69,0,0,1,.54-.25l.18,0Zm-.47.75a.33.33,0,0,0-.26.11.54.54,0,0,0,0,.6.33.33,0,0,0,.26.11.33.33,0,0,0,.25-.11.5.5,0,0,0,0-.6A.33.33,0,0,0,158.31,154.49Z" transform="translate(-2.82 -9.15)"/><g class="cls-4"><line class="cls-5" x1="179.46" y1="143.77" x2="179.46" y2="89.52"/></g><line x1="179.46" y1="143.77" x2="179.46" y2="142.56"/><line class="cls-6" x1="179.46" y1="143.77" x2="179.46" y2="142.56"/><path d="M182.36,153.7h.3v1.15h.25v.2h-.25v.41h-.24v-.41h-.8v-.23Zm.06.21-.61.94h.61Z" transform="translate(-2.82 -9.15)"/><path d="M133.88,157v.31a2.19,2.19,0,0,0-.35-.13,1.15,1.15,0,0,0-.31,0,.66.66,0,0,0-.4.1.31.31,0,0,0-.14.28.27.27,0,0,0,.09.24.8.8,0,0,0,.36.13l.19,0a.94.94,0,0,1,.53.24.61.61,0,0,1,.17.45.63.63,0,0,1-.23.52,1.18,1.18,0,0,1-.68.17l-.36,0a4,4,0,0,1-.39-.11v-.33a1.72,1.72,0,0,0,.38.16,1.24,1.24,0,0,0,.37.06.72.72,0,0,0,.42-.11.34.34,0,0,0,.15-.3.37.37,0,0,0-.1-.28.77.77,0,0,0-.35-.14l-.2,0a1,1,0,0,1-.52-.22.57.57,0,0,1-.16-.42.59.59,0,0,1,.23-.49.91.91,0,0,1,.6-.18,2,2,0,0,1,.34,0Z" transform="translate(-2.82 -9.15)"/><path d="M135.73,158.18a.6.6,0,0,0-.13-.38.48.48,0,0,0-.35-.14.56.56,0,0,0-.39.14.59.59,0,0,0-.17.38Zm.29.09v.14h-1.34a.72.72,0,0,0,.18.46.64.64,0,0,0,.45.15,1.15,1.15,0,0,0,.33,0,1.32,1.32,0,0,0,.31-.12v.27a1.19,1.19,0,0,1-.32.1,1.84,1.84,0,0,1-.33,0,.94.94,0,0,1-.68-.24.89.89,0,0,1-.24-.66,1,1,0,0,1,.23-.69.83.83,0,0,1,.64-.25.69.69,0,0,1,.56.23A.88.88,0,0,1,136,158.27Z" transform="translate(-2.82 -9.15)"/><path d="M138,159a1,1,0,0,1-.2.67.83.83,0,0,1-.62.22,1.36,1.36,0,0,1-.29,0,.77.77,0,0,1-.26-.07v-.28a.77.77,0,0,0,.25.1.73.73,0,0,0,.25,0,.56.56,0,0,0,.43-.15.61.61,0,0,0,.15-.45v-.14a.66.66,0,0,1-.24.23.67.67,0,0,1-.33.08.65.65,0,0,1-.53-.24,1.19,1.19,0,0,1,0-1.32.65.65,0,0,1,.53-.24.67.67,0,0,1,.33.07.69.69,0,0,1,.24.24v-.27H138Zm-.29-.68a.86.86,0,0,0-.13-.49.49.49,0,0,0-.74,0,.86.86,0,0,0-.13.49.81.81,0,0,0,.13.48.47.47,0,0,0,.74,0A.81.81,0,0,0,137.67,158.32Z" transform="translate(-2.82 -9.15)"/><path d="M139.94,157.8a.74.74,0,0,1,.26-.29.69.69,0,0,1,.36-.09.5.5,0,0,1,.42.19.88.88,0,0,1,.15.55v1.06h-.29v-1.05a.64.64,0,0,0-.09-.38.32.32,0,0,0-.27-.12.43.43,0,0,0-.36.15.57.57,0,0,0-.13.4v1h-.29v-1.05a.64.64,0,0,0-.1-.38.32.32,0,0,0-.27-.12.46.46,0,0,0-.36.15.57.57,0,0,0-.13.4v1h-.29v-1.76h.29v.27a.78.78,0,0,1,.24-.24.67.67,0,0,1,.33-.07.58.58,0,0,1,.33.09A.63.63,0,0,1,139.94,157.8Z" transform="translate(-2.82 -9.15)"/><path d="M142.94,158.18a.6.6,0,0,0-.13-.38.48.48,0,0,0-.35-.14.56.56,0,0,0-.39.14.59.59,0,0,0-.17.38Zm.29.09v.14h-1.34a.72.72,0,0,0,.18.46.65.65,0,0,0,.46.15,1.12,1.12,0,0,0,.32,0,1.32,1.32,0,0,0,.31-.12v.27a1.19,1.19,0,0,1-.32.1,1.84,1.84,0,0,1-.33,0,.9.9,0,0,1-.67-.24.86.86,0,0,1-.25-.66,1,1,0,0,1,.23-.69.83.83,0,0,1,.64-.25.68.68,0,0,1,.56.23A.88.88,0,0,1,143.23,158.27Z" transform="translate(-2.82 -9.15)"/><path d="M145.18,158.16v1.06h-.29v-1.05a.59.59,0,0,0-.1-.38.34.34,0,0,0-.29-.12.47.47,0,0,0-.37.15.57.57,0,0,0-.14.4v1h-.29v-1.76H144v.27a.68.68,0,0,1,.25-.23.67.67,0,0,1,.33-.08.56.56,0,0,1,.46.19A.86.86,0,0,1,145.18,158.16Z" transform="translate(-2.82 -9.15)"/><path d="M146.05,157v.5h.6v.22h-.6v1a.42.42,0,0,0,.06.28.35.35,0,0,0,.24.06h.3v.24h-.3a.62.62,0,0,1-.46-.13.59.59,0,0,1-.13-.45v-1h-.21v-.22h.21V157Z" transform="translate(-2.82 -9.15)"/><path d="M149.54,158.16v1.06h-.29v-1.05a.66.66,0,0,0-.1-.38.36.36,0,0,0-.29-.12.5.5,0,0,0-.38.15.57.57,0,0,0-.13.4v1h-.29v-1.76h.29v.27a.68.68,0,0,1,.25-.23.66.66,0,0,1,.32-.08.55.55,0,0,1,.46.19A.8.8,0,0,1,149.54,158.16Z" transform="translate(-2.82 -9.15)"/><path d="M150.83,157.42Zm-.74,1.1v-1.06h.29v1a.66.66,0,0,0,.1.38.36.36,0,0,0,.3.12.48.48,0,0,0,.37-.14.6.6,0,0,0,.14-.41v-1h.29v1.76h-.29V159a.8.8,0,0,1-.25.24.66.66,0,0,1-.32.07.6.6,0,0,1-.47-.18A.83.83,0,0,1,150.09,158.52Z" transform="translate(-2.82 -9.15)"/><path d="M153.56,157.8a.74.74,0,0,1,.26-.29.69.69,0,0,1,.36-.09.5.5,0,0,1,.42.19.88.88,0,0,1,.16.55v1.06h-.3v-1.05a.64.64,0,0,0-.09-.38.32.32,0,0,0-.27-.12.43.43,0,0,0-.36.15.57.57,0,0,0-.13.4v1h-.29v-1.05a.73.73,0,0,0-.09-.38.35.35,0,0,0-.28-.12.46.46,0,0,0-.36.15.57.57,0,0,0-.13.4v1h-.29v-1.76h.29v.27a.78.78,0,0,1,.24-.24.67.67,0,0,1,.33-.07.58.58,0,0,1,.33.09A.63.63,0,0,1,153.56,157.8Z" transform="translate(-2.82 -9.15)"/><path d="M155.62,157.73a.59.59,0,0,1,.23-.24.71.71,0,0,1,.34-.07.64.64,0,0,1,.52.25,1.22,1.22,0,0,1,0,1.34.64.64,0,0,1-.52.25.71.71,0,0,1-.34-.07.57.57,0,0,1-.23-.23v.26h-.29v-2.45h.29Zm1,.61a.9.9,0,0,0-.13-.5.43.43,0,0,0-.37-.18.43.43,0,0,0-.36.18,1,1,0,0,0,0,1,.4.4,0,0,0,.36.18.41.41,0,0,0,.37-.18A.9.9,0,0,0,156.61,158.34Z" transform="translate(-2.82 -9.15)"/><path d="M158.62,158.18a.6.6,0,0,0-.13-.38.48.48,0,0,0-.35-.14.56.56,0,0,0-.39.14.59.59,0,0,0-.17.38Zm.29.09v.14h-1.34a.72.72,0,0,0,.18.46.65.65,0,0,0,.46.15,1.12,1.12,0,0,0,.32,0,1.32,1.32,0,0,0,.31-.12v.27a1.19,1.19,0,0,1-.32.1,1.84,1.84,0,0,1-.33,0,.94.94,0,0,1-.68-.24.89.89,0,0,1-.24-.66,1,1,0,0,1,.23-.69.83.83,0,0,1,.64-.25.68.68,0,0,1,.56.23A.88.88,0,0,1,158.91,158.27Z" transform="translate(-2.82 -9.15)"/><path d="M160.42,157.73l-.11,0-.13,0a.47.47,0,0,0-.38.17.65.65,0,0,0-.13.45v.93h-.29v-1.76h.29v.27a.69.69,0,0,1,.24-.24.74.74,0,0,1,.36-.07h.15Z" transform="translate(-2.82 -9.15)"/><g class="cls-4"><line class="cls-5" x1="103.87" y1="143.77" x2="183.06" y2="143.77"/></g><line x1="103.87" y1="143.77" x2="105.09" y2="143.77"/><line class="cls-6" x1="103.87" y1="143.77" x2="105.09" y2="143.77"/><path d="M102.88,152.05a.54.54,0,0,1,.46.23,1.29,1.29,0,0,1,.16.68,1.24,1.24,0,0,1-.16.68.54.54,0,0,1-.46.23.51.51,0,0,1-.45-.23,1.16,1.16,0,0,1-.16-.68,1.2,1.2,0,0,1,.16-.68A.52.52,0,0,1,102.88,152.05Zm0,.19a.29.29,0,0,0-.27.18,1.1,1.1,0,0,0-.1.54,1.17,1.17,0,0,0,.1.55.29.29,0,0,0,.27.18.29.29,0,0,0,.28-.18,1.17,1.17,0,0,0,.1-.55,1.1,1.1,0,0,0-.1-.54A.29.29,0,0,0,102.88,152.24Z" transform="translate(-2.82 -9.15)"/><rect x="101.1" y="144.39" width="0.25" height="0.3"/><path d="M105.2,152.05a.54.54,0,0,1,.46.23,1.29,1.29,0,0,1,.16.68,1.24,1.24,0,0,1-.16.68.54.54,0,0,1-.46.23.51.51,0,0,1-.45-.23,1.16,1.16,0,0,1-.16-.68,1.2,1.2,0,0,1,.16-.68A.52.52,0,0,1,105.2,152.05Zm0,.19a.29.29,0,0,0-.27.18,1.1,1.1,0,0,0-.1.54,1.17,1.17,0,0,0,.1.55.29.29,0,0,0,.27.18.29.29,0,0,0,.28-.18,1.17,1.17,0,0,0,.1-.55,1.1,1.1,0,0,0-.1-.54A.29.29,0,0,0,105.2,152.24Z" transform="translate(-2.82 -9.15)"/><g class="cls-4"><line class="cls-5" x1="103.87" y1="134.73" x2="183.06" y2="134.73"/></g><line x1="103.87" y1="134.73" x2="105.09" y2="134.73"/><line class="cls-6" x1="103.87" y1="134.73" x2="105.09" y2="134.73"/><polygon points="98.05 135.44 98.44 135.44 98.44 134.1 98.02 134.19 98.02 133.97 98.44 133.88 98.68 133.88 98.68 135.44 99.07 135.44 99.07 135.64 98.05 135.64 98.05 135.44"/><path d="M102.88,143a.54.54,0,0,1,.46.23,1.53,1.53,0,0,1,0,1.36.54.54,0,0,1-.46.23.51.51,0,0,1-.45-.23,1.52,1.52,0,0,1,0-1.36A.51.51,0,0,1,102.88,143Zm0,.18a.32.32,0,0,0-.28.19,1.67,1.67,0,0,0,0,1.08.31.31,0,0,0,.28.18.29.29,0,0,0,.28-.18,1.51,1.51,0,0,0,0-1.08A.3.3,0,0,0,102.88,143.19Z" transform="translate(-2.82 -9.15)"/><rect x="101.1" y="135.34" width="0.25" height="0.3"/><path d="M105.2,143a.54.54,0,0,1,.46.23,1.53,1.53,0,0,1,0,1.36.54.54,0,0,1-.46.23.51.51,0,0,1-.45-.23,1.53,1.53,0,0,1,0-1.36A.51.51,0,0,1,105.2,143Zm0,.18a.32.32,0,0,0-.28.19,1.67,1.67,0,0,0,0,1.08.31.31,0,0,0,.28.18.29.29,0,0,0,.28-.18,1.67,1.67,0,0,0,0-1.08A.3.3,0,0,0,105.2,143.19Z" transform="translate(-2.82 -9.15)"/><g class="cls-4"><line class="cls-5" x1="103.87" y1="125.68" x2="183.06" y2="125.68"/></g><line x1="103.87" y1="125.68" x2="105.09" y2="125.68"/><line class="cls-6" x1="103.87" y1="125.68" x2="105.09" y2="125.68"/><path d="M101,135.56h.84v.2h-1.13v-.2l.37-.38.3-.3a1.06,1.06,0,0,0,.16-.22.41.41,0,0,0,.05-.18.33.33,0,0,0-.1-.23.43.43,0,0,0-.26-.09,1,1,0,0,0-.24,0l-.27.12v-.24L101,134l.23,0a.66.66,0,0,1,.44.14.45.45,0,0,1,.17.37.65.65,0,0,1,0,.2,1.11,1.11,0,0,1-.15.23l-.19.2Z" transform="translate(-2.82 -9.15)"/><path d="M102.88,134a.52.52,0,0,1,.46.24,1.26,1.26,0,0,1,.16.68,1.29,1.29,0,0,1-.16.68.54.54,0,0,1-.46.23.51.51,0,0,1-.45-.23,1.2,1.2,0,0,1-.16-.68,1.18,1.18,0,0,1,.16-.68A.5.5,0,0,1,102.88,134Zm0,.19a.31.31,0,0,0-.28.18,1.3,1.3,0,0,0-.09.55,1.25,1.25,0,0,0,.09.54.31.31,0,0,0,.28.18.29.29,0,0,0,.28-.18,1.23,1.23,0,0,0,.1-.54,1.28,1.28,0,0,0-.1-.55A.29.29,0,0,0,102.88,134.15Z" transform="translate(-2.82 -9.15)"/><rect x="101.1" y="126.3" width="0.25" height="0.3"/><path d="M105.2,134a.52.52,0,0,1,.46.24,1.26,1.26,0,0,1,.16.68,1.29,1.29,0,0,1-.16.68.54.54,0,0,1-.46.23.51.51,0,0,1-.45-.23,1.2,1.2,0,0,1-.16-.68,1.18,1.18,0,0,1,.16-.68A.5.5,0,0,1,105.2,134Zm0,.19a.31.31,0,0,0-.28.18,1.3,1.3,0,0,0-.09.55,1.25,1.25,0,0,0,.09.54.31.31,0,0,0,.28.18.29.29,0,0,0,.28-.18,1.25,1.25,0,0,0,.09-.54,1.3,1.3,0,0,0-.09-.55A.29.29,0,0,0,105.2,134.15Z" transform="translate(-2.82 -9.15)"/><g class="cls-4"><line class="cls-5" x1="103.87" y1="116.64" x2="183.06" y2="116.64"/></g><line x1="103.87" y1="116.64" x2="105.09" y2="116.64"/><line class="cls-6" x1="103.87" y1="116.64" x2="105.09" y2="116.64"/><path d="M101.55,125.77a.43.43,0,0,1,.37.43.53.53,0,0,1-.18.41.89.89,0,0,1-.52.14l-.23,0a1.05,1.05,0,0,1-.24-.06v-.23a.73.73,0,0,0,.22.09.93.93,0,0,0,.24,0,.56.56,0,0,0,.35-.09.3.3,0,0,0,.12-.26.3.3,0,0,0-.11-.24.5.5,0,0,0-.31-.09h-.21v-.19h.22a.48.48,0,0,0,.27-.07.27.27,0,0,0,.1-.21.23.23,0,0,0-.1-.2.47.47,0,0,0-.28-.08l-.21,0-.25.07V125l.26-.06.22,0a.63.63,0,0,1,.43.13.38.38,0,0,1,.16.33.41.41,0,0,1-.08.25A.57.57,0,0,1,101.55,125.77Z" transform="translate(-2.82 -9.15)"/><path d="M102.88,124.92a.52.52,0,0,1,.46.24,1.24,1.24,0,0,1,.16.68,1.23,1.23,0,0,1-.16.67.52.52,0,0,1-.46.24.5.5,0,0,1-.45-.24,1.14,1.14,0,0,1-.16-.67,1.16,1.16,0,0,1,.16-.68A.5.5,0,0,1,102.88,124.92Zm0,.19a.31.31,0,0,0-.28.18,1.27,1.27,0,0,0-.09.55,1.25,1.25,0,0,0,.09.54.31.31,0,0,0,.28.18.29.29,0,0,0,.28-.18,1.23,1.23,0,0,0,.1-.54,1.25,1.25,0,0,0-.1-.55A.29.29,0,0,0,102.88,125.11Z" transform="translate(-2.82 -9.15)"/><rect x="101.1" y="117.26" width="0.25" height="0.3"/><path d="M105.2,124.92a.52.52,0,0,1,.46.24,1.24,1.24,0,0,1,.16.68,1.23,1.23,0,0,1-.16.67.52.52,0,0,1-.46.24.5.5,0,0,1-.45-.24,1.14,1.14,0,0,1-.16-.67,1.16,1.16,0,0,1,.16-.68A.5.5,0,0,1,105.2,124.92Zm0,.19a.31.31,0,0,0-.28.18,1.27,1.27,0,0,0-.09.55,1.25,1.25,0,0,0,.09.54.31.31,0,0,0,.28.18.29.29,0,0,0,.28-.18,1.25,1.25,0,0,0,.09-.54,1.27,1.27,0,0,0-.09-.55A.29.29,0,0,0,105.2,125.11Z" transform="translate(-2.82 -9.15)"/><g class="cls-4"><line class="cls-5" x1="103.87" y1="107.6" x2="183.06" y2="107.6"/></g><line x1="103.87" y1="107.6" x2="105.09" y2="107.6"/><line class="cls-6" x1="103.87" y1="107.6" x2="105.09" y2="107.6"/><path d="M101.42,115.91h.3v1.15H102v.2h-.25v.41h-.24v-.41h-.8V117Zm.06.21-.6.94h.6Z" transform="translate(-2.82 -9.15)"/><path d="M102.88,115.88a.52.52,0,0,1,.46.24,1.23,1.23,0,0,1,.16.67,1.24,1.24,0,0,1-.16.68.52.52,0,0,1-.46.23.49.49,0,0,1-.45-.23,1.16,1.16,0,0,1-.16-.68,1.14,1.14,0,0,1,.16-.67A.5.5,0,0,1,102.88,115.88Zm0,.19a.31.31,0,0,0-.28.18,1.25,1.25,0,0,0-.09.54,1.27,1.27,0,0,0,.09.55.31.31,0,0,0,.28.18.29.29,0,0,0,.28-.18,1.25,1.25,0,0,0,.1-.55,1.23,1.23,0,0,0-.1-.54A.29.29,0,0,0,102.88,116.07Z" transform="translate(-2.82 -9.15)"/><rect x="101.1" y="108.22" width="0.25" height="0.3"/><path d="M105.2,115.88a.52.52,0,0,1,.46.24,1.23,1.23,0,0,1,.16.67,1.24,1.24,0,0,1-.16.68.52.52,0,0,1-.46.23.49.49,0,0,1-.45-.23,1.16,1.16,0,0,1-.16-.68,1.14,1.14,0,0,1,.16-.67A.5.5,0,0,1,105.2,115.88Zm0,.19a.31.31,0,0,0-.28.18,1.25,1.25,0,0,0-.09.54,1.27,1.27,0,0,0,.09.55.31.31,0,0,0,.28.18.29.29,0,0,0,.28-.18,1.27,1.27,0,0,0,.09-.55,1.25,1.25,0,0,0-.09-.54A.29.29,0,0,0,105.2,116.07Z" transform="translate(-2.82 -9.15)"/><g class="cls-4"><line class="cls-5" x1="103.87" y1="98.56" x2="183.06" y2="98.56"/></g><line x1="103.87" y1="98.56" x2="105.09" y2="98.56"/><line class="cls-6" x1="103.87" y1="98.56" x2="105.09" y2="98.56"/><path d="M100.83,106.87h.94v.2H101v.43l.11,0h.1a.64.64,0,0,1,.47.16.63.63,0,0,1,0,.88.76.76,0,0,1-.5.15H101a2.1,2.1,0,0,1-.24-.06v-.24a.85.85,0,0,0,.22.09,1,1,0,0,0,.24,0,.48.48,0,0,0,.33-.1.41.41,0,0,0,0-.58.44.44,0,0,0-.33-.11.62.62,0,0,0-.19,0l-.19.06Z" transform="translate(-2.82 -9.15)"/><path d="M102.88,106.84a.54.54,0,0,1,.46.23,1.29,1.29,0,0,1,.16.68,1.24,1.24,0,0,1-.16.68.52.52,0,0,1-.46.23.49.49,0,0,1-.45-.23,1.16,1.16,0,0,1-.16-.68,1.2,1.2,0,0,1,.16-.68A.51.51,0,0,1,102.88,106.84Zm0,.19a.31.31,0,0,0-.28.18,1.25,1.25,0,0,0-.09.54,1.34,1.34,0,0,0,.09.55.31.31,0,0,0,.28.18.29.29,0,0,0,.28-.18,1.32,1.32,0,0,0,.1-.55,1.23,1.23,0,0,0-.1-.54A.29.29,0,0,0,102.88,107Z" transform="translate(-2.82 -9.15)"/><rect x="101.1" y="99.18" width="0.25" height="0.3"/><path d="M105.2,106.84a.54.54,0,0,1,.46.23,1.29,1.29,0,0,1,.16.68,1.24,1.24,0,0,1-.16.68.52.52,0,0,1-.46.23.49.49,0,0,1-.45-.23,1.16,1.16,0,0,1-.16-.68,1.2,1.2,0,0,1,.16-.68A.51.51,0,0,1,105.2,106.84Zm0,.19a.31.31,0,0,0-.28.18,1.25,1.25,0,0,0-.09.54,1.34,1.34,0,0,0,.09.55.31.31,0,0,0,.28.18.29.29,0,0,0,.28-.18,1.34,1.34,0,0,0,.09-.55,1.25,1.25,0,0,0-.09-.54A.29.29,0,0,0,105.2,107Z" transform="translate(-2.82 -9.15)"/><g class="cls-4"><line class="cls-5" x1="103.87" y1="89.52" x2="183.06" y2="89.52"/></g><line x1="103.87" y1="89.52" x2="105.09" y2="89.52"/><line class="cls-6" x1="103.87" y1="89.52" x2="105.09" y2="89.52"/><path d="M101.84,97.87v.21l-.18-.06a.55.55,0,0,0-.18,0,.44.44,0,0,0-.37.16.86.86,0,0,0-.14.48.55.55,0,0,1,.18-.16.46.46,0,0,1,.23,0,.54.54,0,0,1,.42.16A.6.6,0,0,1,102,99a.59.59,0,0,1-.17.44.55.55,0,0,1-.42.16.53.53,0,0,1-.47-.23,1.18,1.18,0,0,1-.17-.68,1,1,0,0,1,.2-.66.64.64,0,0,1,.54-.25h.18Zm-.47.74a.33.33,0,0,0-.26.11.49.49,0,0,0-.09.3.5.5,0,0,0,.09.31.33.33,0,0,0,.26.1.32.32,0,0,0,.25-.1.5.5,0,0,0,.1-.31.49.49,0,0,0-.1-.3A.33.33,0,0,0,101.37,98.61Z" transform="translate(-2.82 -9.15)"/><path d="M102.88,97.8a.54.54,0,0,1,.46.23,1.29,1.29,0,0,1,.16.68,1.26,1.26,0,0,1-.16.68.54.54,0,0,1-.46.23.51.51,0,0,1-.45-.23,1.18,1.18,0,0,1-.16-.68,1.2,1.2,0,0,1,.16-.68A.51.51,0,0,1,102.88,97.8Zm0,.19a.31.31,0,0,0-.28.18,1.67,1.67,0,0,0,0,1.08.31.31,0,0,0,.28.18.29.29,0,0,0,.28-.18,1.51,1.51,0,0,0,0-1.08A.29.29,0,0,0,102.88,98Z" transform="translate(-2.82 -9.15)"/><rect x="101.1" y="90.14" width="0.25" height="0.3"/><path d="M105.2,97.8a.54.54,0,0,1,.46.23,1.29,1.29,0,0,1,.16.68,1.26,1.26,0,0,1-.16.68.54.54,0,0,1-.46.23.51.51,0,0,1-.45-.23,1.18,1.18,0,0,1-.16-.68,1.2,1.2,0,0,1,.16-.68A.51.51,0,0,1,105.2,97.8Zm0,.19a.31.31,0,0,0-.28.18,1.67,1.67,0,0,0,0,1.08.31.31,0,0,0,.28.18.29.29,0,0,0,.28-.18,1.66,1.66,0,0,0,0-1.08A.29.29,0,0,0,105.2,98Z" transform="translate(-2.82 -9.15)"/><path d="M97,140.08h.84v-.4a.5.5,0,0,0-.11-.34.4.4,0,0,0-.31-.12.42.42,0,0,0-.32.12.49.49,0,0,0-.1.34Zm1-.79a.46.46,0,0,1,.15-.2,1.67,1.67,0,0,1,.31-.2l.65-.32v.34l-.61.3a1,1,0,0,0-.31.23.51.51,0,0,0-.08.3v.34h1v.32H96.71v-.72a1,1,0,0,1,.17-.6.67.67,0,0,1,.52-.2.65.65,0,0,1,.37.11A.54.54,0,0,1,98,139.29Z" transform="translate(-2.82 -9.15)"/><path d="M96.71,137.69v-.36l2.37-.9v.33l-.61.21V138l.61.22v.33Zm.32-.18,1.18.43v-.87Z" transform="translate(-2.82 -9.15)"/><polygon points="93.9 126.93 93.9 126.46 95.51 125.86 93.9 125.26 93.9 124.78 96.26 124.78 96.26 125.09 94.19 125.09 95.81 125.7 95.81 126.02 94.19 126.62 96.26 126.62 96.26 126.93 93.9 126.93"/><path d="M97.65,130.92a.72.72,0,0,1-.29-.25.69.69,0,0,1-.1-.36.5.5,0,0,1,.2-.42.88.88,0,0,1,.55-.15h1.07V130H98a.64.64,0,0,0-.38.09.32.32,0,0,0-.12.27.46.46,0,0,0,.15.36.63.63,0,0,0,.41.13h1v.29H98a.64.64,0,0,0-.38.09.32.32,0,0,0-.12.27.46.46,0,0,0,.15.36.63.63,0,0,0,.41.13h1v.29H97.3V132h.28a.69.69,0,0,1-.24-.24.67.67,0,0,1-.08-.33.59.59,0,0,1,.1-.33A.58.58,0,0,1,97.65,130.92Z" transform="translate(-2.82 -9.15)"/><path d="M98,127.94a.6.6,0,0,0-.38.13.48.48,0,0,0-.14.35.52.52,0,0,0,.14.38A.54.54,0,0,0,98,129Zm.09-.29h.14V129a.65.65,0,0,0,.46-.18.58.58,0,0,0,.16-.45,1.65,1.65,0,0,0,0-.32,1.37,1.37,0,0,0-.13-.31H99a1.7,1.7,0,0,1,.1.32,1.84,1.84,0,0,1,0,.33.83.83,0,0,1-.91.91,1,1,0,0,1-.69-.23.8.8,0,0,1-.26-.63.72.72,0,0,1,.23-.56A.92.92,0,0,1,98.12,127.65Z" transform="translate(-2.82 -9.15)"/><path d="M97.65,125.81a.74.74,0,0,1-.29-.26.69.69,0,0,1-.1-.36.5.5,0,0,1,.2-.42.88.88,0,0,1,.55-.15h1.07v.29H98a.64.64,0,0,0-.38.09.32.32,0,0,0-.12.27.46.46,0,0,0,.15.36.58.58,0,0,0,.41.13h1v.29H98a.64.64,0,0,0-.38.09.32.32,0,0,0-.12.27.46.46,0,0,0,.15.36.58.58,0,0,0,.41.13h1v.29H97.3v-.29h.28a.69.69,0,0,1-.24-.24.67.67,0,0,1-.08-.33.55.55,0,0,1,.1-.32A.52.52,0,0,1,97.65,125.81Z" transform="translate(-2.82 -9.15)"/><path d="M97.26,123.36a.79.79,0,0,1,.25-.6,1.21,1.21,0,0,1,1.36,0,.76.76,0,0,1,.25.6.72.72,0,0,1-.25.59,1.16,1.16,0,0,1-1.36,0A.75.75,0,0,1,97.26,123.36Zm.25,0a.43.43,0,0,0,.18.36.78.78,0,0,0,.5.14.86.86,0,0,0,.51-.13.47.47,0,0,0,0-.74,1,1,0,0,0-1,0A.43.43,0,0,0,97.51,123.36Z" transform="translate(-2.82 -9.15)"/><path d="M97.58,121.05l0,.1s0,.08,0,.13a.5.5,0,0,0,.16.38.7.7,0,0,0,.46.13h.94v.29H97.3v-.29h.28a.56.56,0,0,1-.24-.24.72.72,0,0,1-.08-.35s0,0,0-.07a.25.25,0,0,1,0-.08Z" transform="translate(-2.82 -9.15)"/><path d="M99.24,120a1.08,1.08,0,0,1,.41.24.45.45,0,0,1,.1.31v.23h-.24v-.17a.26.26,0,0,0-.06-.18.77.77,0,0,0-.27-.15l-.13-.05L97.3,121v-.3l1.39-.56-1.39-.55v-.3Z" transform="translate(-2.82 -9.15)"/><path d="M96.62,117.12a3.2,3.2,0,0,0,.72.31,2.55,2.55,0,0,0,.72.1,2.46,2.46,0,0,0,.72-.1,3.2,3.2,0,0,0,.72-.31v.25a2.85,2.85,0,0,1-.73.35,2.21,2.21,0,0,1-.71.12,2.25,2.25,0,0,1-.71-.12,2.85,2.85,0,0,1-.73-.35Z" transform="translate(-2.82 -9.15)"/><path d="M98.74,114.94h-.63v.52h-.27v-.83h1a1.5,1.5,0,0,1,.2.4,1.86,1.86,0,0,1,.06.48,1.17,1.17,0,0,1-.32.86,1.46,1.46,0,0,1-1.8,0,1.14,1.14,0,0,1-.33-.86,1.61,1.61,0,0,1,.06-.44,1.3,1.3,0,0,1,.17-.38h.34a1.25,1.25,0,0,0-.23.38,1.14,1.14,0,0,0-.07.41.82.82,0,0,0,.24.65,1.34,1.34,0,0,0,1.44,0,.82.82,0,0,0,.24-.65,1.39,1.39,0,0,0,0-.3A.85.85,0,0,0,98.74,114.94Z" transform="translate(-2.82 -9.15)"/><path d="M96.71,114.05v-.81a.89.89,0,0,1,.16-.56.51.51,0,0,1,.43-.2.56.56,0,0,1,.35.1.48.48,0,0,1,.15.3.6.6,0,0,1,.62-.5.61.61,0,0,1,.49.22,1,1,0,0,1,.17.6v.85Zm.27-.32h.71v-.47a.56.56,0,0,0-.09-.35.32.32,0,0,0-.27-.11.33.33,0,0,0-.26.11.56.56,0,0,0-.09.35Zm1,0h.87v-.51a.57.57,0,0,0-.11-.38.42.42,0,0,0-.33-.12.41.41,0,0,0-.32.12.57.57,0,0,0-.11.38Z" transform="translate(-2.82 -9.15)"/><path d="M96.62,111.9v-.26a3.72,3.72,0,0,1,.73-.35,2.58,2.58,0,0,1,.71-.12,2.52,2.52,0,0,1,.71.12,3.72,3.72,0,0,1,.73.35v.26a3.24,3.24,0,0,0-.72-.32,2.84,2.84,0,0,0-.72-.1,3,3,0,0,0-.72.1A3.24,3.24,0,0,0,96.62,111.9Z" transform="translate(-2.82 -9.15)"/><g class="cls-4"><polyline class="cls-7" points="107.47 117.64 131.47 122 155.46 124.61 179.46 127.6"/></g><line class="cls-8" x1="103.87" y1="143.77" x2="103.87" y2="89.52"/><line class="cls-8" x1="103.87" y1="143.77" x2="183.06" y2="143.77"/><g class="cls-4"><g class="cls-9"><path class="cls-10" d="M110.29,127.8a1.06,1.06,0,0,0,.72-.29,1,1,0,1,0-1.44,0A1.06,1.06,0,0,0,110.29,127.8Z" transform="translate(-2.82 -9.15)"/><path class="cls-11" d="M110.29,127.8a1.06,1.06,0,0,0,.72-.29,1,1,0,1,0-1.44,0A1.06,1.06,0,0,0,110.29,127.8Z" transform="translate(-2.82 -9.15)"/></g><g class="cls-12"><path class="cls-10" d="M134.28,132.16a1,1,0,0,0,1-1,1,1,0,0,0-.3-.71,1,1,0,0,0-1.43,0,1,1,0,0,0-.3.71,1,1,0,0,0,.3.71A1,1,0,0,0,134.28,132.16Z" transform="translate(-2.82 -9.15)"/><path class="cls-11" d="M134.28,132.16a1,1,0,0,0,1-1,1,1,0,0,0-.3-.71,1,1,0,0,0-1.43,0,1,1,0,0,0-.3.71,1,1,0,0,0,.3.71A1,1,0,0,0,134.28,132.16Z" transform="translate(-2.82 -9.15)"/></g><g class="cls-13"><path class="cls-10" d="M158.28,134.77a1,1,0,0,0,1-1,1,1,0,0,0-.29-.71,1,1,0,0,0-1.44,0,1,1,0,0,0-.29.71,1,1,0,0,0,1,1Z" transform="translate(-2.82 -9.15)"/><path class="cls-11" d="M158.28,134.77a1,1,0,0,0,1-1,1,1,0,0,0-.29-.71,1,1,0,0,0-1.44,0,1,1,0,0,0-.29.71,1,1,0,0,0,1,1Z" transform="translate(-2.82 -9.15)"/></g><g class="cls-14"><path class="cls-10" d="M182.27,137.76A1,1,0,0,0,183,136a1.06,1.06,0,0,0-.72-.29,1,1,0,0,0-.71.29,1,1,0,0,0,0,1.43A1,1,0,0,0,182.27,137.76Z" transform="translate(-2.82 -9.15)"/><path class="cls-11" d="M182.27,137.76A1,1,0,0,0,183,136a1.06,1.06,0,0,0-.72-.29,1,1,0,0,0-.71.29,1,1,0,0,0,0,1.43A1,1,0,0,0,182.27,137.76Z" transform="translate(-2.82 -9.15)"/></g></g><path d="M112,95.11v.94h.45a.57.57,0,0,0,.39-.12.44.44,0,0,0,.14-.35.45.45,0,0,0-.14-.35.57.57,0,0,0-.39-.12Zm.9,1.11a.68.68,0,0,1,.23.17,1.79,1.79,0,0,1,.21.35l.37.72h-.39l-.34-.67a.92.92,0,0,0-.25-.36.68.68,0,0,0-.34-.08H112v1.11h-.36V94.82h.81a1.08,1.08,0,0,1,.68.19.72.72,0,0,1,.23.57.7.7,0,0,1-.12.42A.58.58,0,0,1,112.85,96.22Z" transform="translate(-2.82 -9.15)"/><path d="M114.66,94.82h.41l1,2.64h-.38l-.24-.67h-1.2l-.24.67h-.38Zm.21.35-.49,1.32h1Z" transform="translate(-2.82 -9.15)"/><polygon points="113.66 85.67 114.19 85.67 114.87 87.46 115.55 85.67 116.09 85.67 116.09 88.31 115.74 88.31 115.74 85.99 115.05 87.8 114.69 87.8 114.01 85.99 114.01 88.31 113.66 88.31 113.66 85.67"/><path d="M122.32,95.86a.91.91,0,0,1,.29-.32.76.76,0,0,1,.41-.11.57.57,0,0,1,.47.22,1,1,0,0,1,.18.62v1.19h-.33V96.28a.74.74,0,0,0-.11-.43.35.35,0,0,0-.31-.13.48.48,0,0,0-.4.17.64.64,0,0,0-.15.45v1.12h-.32V96.28a.74.74,0,0,0-.11-.43.36.36,0,0,0-.31-.13.48.48,0,0,0-.4.17.64.64,0,0,0-.15.45v1.12h-.33v-2h.33v.31a.87.87,0,0,1,.27-.27.72.72,0,0,1,.37-.09.62.62,0,0,1,.37.11A.59.59,0,0,1,122.32,95.86Z" transform="translate(-2.82 -9.15)"/><path d="M125.7,96.3a.72.72,0,0,0-.15-.43.5.5,0,0,0-.39-.16.62.62,0,0,0-.44.15.64.64,0,0,0-.19.44Zm.33.09v.16h-1.51a.72.72,0,0,0,.2.51.69.69,0,0,0,.51.18,1.42,1.42,0,0,0,.36,0,1.07,1.07,0,0,0,.36-.14v.31a2,2,0,0,1-.74.15,1.05,1.05,0,0,1-.76-.27,1,1,0,0,1-.27-.75,1.07,1.07,0,0,1,.26-.77.91.91,0,0,1,.71-.29.84.84,0,0,1,.64.26A1,1,0,0,1,126,96.39Z" transform="translate(-2.82 -9.15)"/><path d="M128.12,95.86a.82.82,0,0,1,.29-.32.75.75,0,0,1,.4-.11.58.58,0,0,1,.48.22,1,1,0,0,1,.17.62v1.19h-.33V96.28a.74.74,0,0,0-.1-.43.36.36,0,0,0-.31-.13.47.47,0,0,0-.4.17.64.64,0,0,0-.15.45v1.12h-.33V96.28a.74.74,0,0,0-.1-.43.37.37,0,0,0-.31-.13.5.5,0,0,0-.41.17.69.69,0,0,0-.14.45v1.12h-.33v-2h.33v.31a.71.71,0,0,1,.64-.36.62.62,0,0,1,.37.11A.72.72,0,0,1,128.12,95.86Z" transform="translate(-2.82 -9.15)"/><path d="M130.89,95.43a.88.88,0,0,1,.67.28,1.12,1.12,0,0,1,.24.76,1.1,1.1,0,0,1-.24.76,1,1,0,0,1-1.35,0,1.1,1.1,0,0,1-.24-.76,1.12,1.12,0,0,1,.24-.76A.87.87,0,0,1,130.89,95.43Zm0,.28a.49.49,0,0,0-.42.21.9.9,0,0,0-.15.55,1,1,0,0,0,.15.57.5.5,0,0,0,.42.2.5.5,0,0,0,.41-.2.9.9,0,0,0,.16-.57.84.84,0,0,0-.16-.55A.48.48,0,0,0,130.89,95.71Z" transform="translate(-2.82 -9.15)"/><path d="M133.5,95.79a.22.22,0,0,0-.12-.05l-.14,0a.56.56,0,0,0-.43.18.79.79,0,0,0-.15.52v1h-.32v-2h.32v.31a.7.7,0,0,1,.27-.27.83.83,0,0,1,.41-.09h.16Z" transform="translate(-2.82 -9.15)"/><path d="M134.68,97.64a1.17,1.17,0,0,1-.28.46.48.48,0,0,1-.35.11h-.26v-.27H134a.33.33,0,0,0,.21-.06,1,1,0,0,0,.17-.3l.06-.15-.81-2H134l.62,1.55.63-1.55h.34Z" transform="translate(-2.82 -9.15)"/><path d="M138,95.43Zm-.83,1.25v-1.2h.33v1.19a.68.68,0,0,0,.11.42.39.39,0,0,0,.33.14.51.51,0,0,0,.42-.17.65.65,0,0,0,.15-.46V95.48h.33v2h-.33v-.3a.67.67,0,0,1-.64.35.64.64,0,0,1-.52-.21A.92.92,0,0,1,137.13,96.68Z" transform="translate(-2.82 -9.15)"/><path d="M140.75,95.54v.31a1.45,1.45,0,0,0-.29-.11,1.55,1.55,0,0,0-.31,0,.74.74,0,0,0-.37.07.24.24,0,0,0-.12.22.2.2,0,0,0,.09.18,1,1,0,0,0,.35.12l.11,0a1.07,1.07,0,0,1,.5.21.49.49,0,0,1,.15.38.51.51,0,0,1-.22.43,1,1,0,0,1-.61.16,1.84,1.84,0,0,1-.33,0l-.37-.09v-.34a1.07,1.07,0,0,0,.36.14,1.06,1.06,0,0,0,.35,0,.74.74,0,0,0,.36-.07.26.26,0,0,0,.12-.23.24.24,0,0,0-.09-.2,1,1,0,0,0-.39-.14l-.12,0a1,1,0,0,1-.44-.2.48.48,0,0,1-.13-.36.5.5,0,0,1,.19-.43.86.86,0,0,1,.57-.16,2,2,0,0,1,.35,0Z" transform="translate(-2.82 -9.15)"/><path d="M142.94,96.33v1.13h-.33v-.3a.72.72,0,0,1-.28.27,1,1,0,0,1-.41.08.67.67,0,0,1-.49-.17.58.58,0,0,1-.18-.45.62.62,0,0,1,.23-.51,1.12,1.12,0,0,1,.67-.17h.46v0a.44.44,0,0,0-.15-.35.65.65,0,0,0-.41-.12,1.27,1.27,0,0,0-.34,0,1.66,1.66,0,0,0-.31.12v-.3a2.3,2.3,0,0,1,.35-.1,1.86,1.86,0,0,1,.33,0,.83.83,0,0,1,.64.23A.9.9,0,0,1,142.94,96.33Zm-.65.14a1.16,1.16,0,0,0-.55.09.32.32,0,0,0-.16.31.33.33,0,0,0,.12.27.43.43,0,0,0,.31.1.55.55,0,0,0,.44-.19.76.76,0,0,0,.16-.51v-.07Z" transform="translate(-2.82 -9.15)"/><path d="M145.26,97.22A1.1,1.1,0,0,1,145,98a.9.9,0,0,1-.69.24l-.33,0-.3-.08v-.32a1.78,1.78,0,0,0,.29.12,1.35,1.35,0,0,0,.28,0,.66.66,0,0,0,.49-.17.74.74,0,0,0,.16-.51v-.15a.75.75,0,0,1-.27.26.84.84,0,0,1-.37.08.74.74,0,0,1-.6-.27,1.35,1.35,0,0,1,0-1.48.75.75,0,0,1,.6-.28.72.72,0,0,1,.37.09.75.75,0,0,1,.27.26v-.3h.33Zm-.33-.77a.9.9,0,0,0-.15-.55.49.49,0,0,0-.41-.19.48.48,0,0,0-.41.19,1.08,1.08,0,0,0,0,1.1.48.48,0,0,0,.41.19.49.49,0,0,0,.41-.19A.9.9,0,0,0,144.93,96.45Z" transform="translate(-2.82 -9.15)"/><path d="M147.31,96.3a.66.66,0,0,0-.15-.43.5.5,0,0,0-.39-.16.63.63,0,0,0-.44.15.69.69,0,0,0-.19.44Zm.33.09v.16h-1.51a.77.77,0,0,0,.2.51.71.71,0,0,0,.51.18,1.5,1.5,0,0,0,.37,0,1.11,1.11,0,0,0,.35-.14v.31a1.65,1.65,0,0,1-.36.11,1.58,1.58,0,0,1-.38,0,1.05,1.05,0,0,1-.76-.27,1,1,0,0,1-.27-.75,1.12,1.12,0,0,1,.26-.77,1,1,0,0,1,.72-.29.8.8,0,0,1,.63.26A1,1,0,0,1,147.64,96.39Z" transform="translate(-2.82 -9.15)"/><path d="M150.12,94.71a3.48,3.48,0,0,0-.35.81,2.79,2.79,0,0,0-.12.81,2.72,2.72,0,0,0,.12.8,3.15,3.15,0,0,0,.35.81h-.28a3.26,3.26,0,0,1-.4-.82,2.33,2.33,0,0,1,0-1.59,3,3,0,0,1,.4-.82Z" transform="translate(-2.82 -9.15)"/><path d="M152.19,95.56v.3a1,1,0,0,0-.28-.11.86.86,0,0,0-.28,0,.62.62,0,0,0-.49.2.82.82,0,0,0-.18.56.83.83,0,0,0,.18.57.62.62,0,0,0,.49.2.86.86,0,0,0,.28,0,1,1,0,0,0,.28-.11v.3a1.52,1.52,0,0,1-.28.09,1.66,1.66,0,0,1-.32,0,.92.92,0,0,1-.71-.28,1,1,0,0,1-.27-.76,1.05,1.05,0,0,1,.27-.76,1,1,0,0,1,.74-.28.92.92,0,0,1,.29,0A1.31,1.31,0,0,1,152.19,95.56Z" transform="translate(-2.82 -9.15)"/><path d="M154.14,96.3a.61.61,0,0,0-.15-.43.5.5,0,0,0-.39-.16.63.63,0,0,0-.44.15.69.69,0,0,0-.19.44Zm.33.09v.16H153a.73.73,0,0,0,.21.51.67.67,0,0,0,.5.18,1.5,1.5,0,0,0,.37,0,1,1,0,0,0,.35-.14v.31a1.37,1.37,0,0,1-.36.11,1.55,1.55,0,0,1-.37,0,1,1,0,0,1-.76-.27,1,1,0,0,1-.28-.75,1.12,1.12,0,0,1,.26-.77,1,1,0,0,1,.72-.29.84.84,0,0,1,.64.26A1,1,0,0,1,154.47,96.39Z" transform="translate(-2.82 -9.15)"/><path d="M156.66,96.27v1.19h-.32V96.28a.62.62,0,0,0-.12-.42.36.36,0,0,0-.32-.14.51.51,0,0,0-.42.17.61.61,0,0,0-.16.45v1.12H155v-2h.33v.31a.8.8,0,0,1,.28-.27.88.88,0,0,1,.37-.09.66.66,0,0,1,.52.22A1,1,0,0,1,156.66,96.27Z" transform="translate(-2.82 -9.15)"/><path d="M157.64,94.92v.56h.68v.25h-.68v1.08c0,.16,0,.27.07.31s.13.07.27.07h.34v.27H158a.7.7,0,0,1-.52-.14.67.67,0,0,1-.15-.51V95.73h-.24v-.25h.24v-.56Z" transform="translate(-2.82 -9.15)"/><path d="M159.9,95.79a.22.22,0,0,0-.12-.05l-.14,0a.57.57,0,0,0-.43.18.79.79,0,0,0-.15.52v1h-.32v-2h.32v.31a.7.7,0,0,1,.27-.27.86.86,0,0,1,.41-.09h.16Z" transform="translate(-2.82 -9.15)"/><path d="M161.81,96.33v1.13h-.33v-.3a.72.72,0,0,1-.28.27,1,1,0,0,1-.41.08.67.67,0,0,1-.49-.17.58.58,0,0,1-.18-.45.62.62,0,0,1,.23-.51,1.12,1.12,0,0,1,.67-.17h.46v0a.44.44,0,0,0-.15-.35.66.66,0,0,0-.42-.12,1.24,1.24,0,0,0-.33,0,1.66,1.66,0,0,0-.31.12v-.3a2.3,2.3,0,0,1,.35-.1,1.86,1.86,0,0,1,.33,0,.83.83,0,0,1,.64.23A1,1,0,0,1,161.81,96.33Zm-.66.14a1.21,1.21,0,0,0-.55.09.33.33,0,0,0-.15.31.35.35,0,0,0,.11.27.47.47,0,0,0,.32.1.55.55,0,0,0,.44-.19.82.82,0,0,0,.16-.51v-.07Z" transform="translate(-2.82 -9.15)"/><rect x="159.67" y="85.55" width="0.33" height="2.75"/><path d="M163.54,96.54h2.28v.3h-2.28Zm0-.72h2.28v.29h-2.28Z" transform="translate(-2.82 -9.15)"/><polygon points="163.85 88.01 164.44 88.01 164.44 85.99 163.8 86.12 163.8 85.79 164.43 85.67 164.79 85.67 164.79 88.01 165.38 88.01 165.38 88.31 163.85 88.31 163.85 88.01"/><path d="M169.69,94.77a.76.76,0,0,1,.68.36,2.27,2.27,0,0,1,0,2,.78.78,0,0,1-.68.35.79.79,0,0,1-.69-.35,2.35,2.35,0,0,1,0-2A.78.78,0,0,1,169.69,94.77Zm0,.29a.45.45,0,0,0-.42.27,1.87,1.87,0,0,0-.14.81,1.89,1.89,0,0,0,.14.82.46.46,0,0,0,.84,0,1.89,1.89,0,0,0,.14-.82,1.87,1.87,0,0,0-.14-.81A.45.45,0,0,0,169.69,95.06Z" transform="translate(-2.82 -9.15)"/><path d="M172,94.77a.76.76,0,0,1,.68.36,2.27,2.27,0,0,1,0,2,.78.78,0,0,1-.68.35.79.79,0,0,1-.69-.35,2.35,2.35,0,0,1,0-2A.78.78,0,0,1,172,94.77Zm0,.29a.45.45,0,0,0-.42.27,1.87,1.87,0,0,0-.14.81,1.89,1.89,0,0,0,.14.82.46.46,0,0,0,.84,0,1.89,1.89,0,0,0,.14-.82,1.87,1.87,0,0,0-.14-.81A.45.45,0,0,0,172,95.06Z" transform="translate(-2.82 -9.15)"/><polygon points="170.69 85.55 171.01 85.55 171.01 87.18 171.99 86.33 172.41 86.33 171.35 87.25 172.46 88.31 172.03 88.31 171.01 87.34 171.01 88.31 170.69 88.31 170.69 85.55"/><path d="M175.94,95.78a.81.81,0,0,1,.26-.26.76.76,0,0,1,.38-.09.72.72,0,0,1,.59.29,1.35,1.35,0,0,1,0,1.51.72.72,0,0,1-.59.28.89.89,0,0,1-.38-.08.72.72,0,0,1-.26-.26v.29h-.33V94.71h.33Zm1.12.69a.93.93,0,0,0-.15-.56.52.52,0,0,0-.82,0,.93.93,0,0,0-.15.56,1,1,0,0,0,.15.57.52.52,0,0,0,.82,0A1,1,0,0,0,177.06,96.47Z" transform="translate(-2.82 -9.15)"/><path d="M179.37,96.47a.93.93,0,0,0-.15-.56.46.46,0,0,0-.4-.2.46.46,0,0,0-.41.2.93.93,0,0,0-.15.56,1,1,0,0,0,.15.57.46.46,0,0,0,.41.2.46.46,0,0,0,.4-.2A1,1,0,0,0,179.37,96.47Zm-1.11.7v1h-.33V95.48h.33v.3a.65.65,0,0,1,.26-.26.78.78,0,0,1,1,.2,1.41,1.41,0,0,1,0,1.51.73.73,0,0,1-.59.28.86.86,0,0,1-.38-.08A.59.59,0,0,1,178.26,97.17Z" transform="translate(-2.82 -9.15)"/><path d="M180.21,94.71h.28a3.64,3.64,0,0,1,.4.82,2.5,2.5,0,0,1,0,1.59,3.64,3.64,0,0,1-.4.82h-.28a4,4,0,0,0,.35-.81,2.72,2.72,0,0,0,.12-.8,2.79,2.79,0,0,0-.12-.81A4.61,4.61,0,0,0,180.21,94.71Z" transform="translate(-2.82 -9.15)"/></g><g class="cls-15"><rect class="cls-3" y="83.38" width="93.38" height="69.58"/><rect class="cls-3" x="12.01" y="89.52" width="78.64" height="54.25"/><g class="cls-16"><line class="cls-17" x1="15.58" y1="143.77" x2="15.58" y2="89.52"/></g><line x1="15.58" y1="143.77" x2="15.58" y2="142.56"/><line class="cls-18" x1="15.58" y1="143.77" x2="15.58" y2="142.56"/><path d="M14.74,154.51a.53.53,0,0,1,.27.16.43.43,0,0,1,.09.28.5.5,0,0,1-.18.41.84.84,0,0,1-.51.14.91.91,0,0,1-.23,0,1.05,1.05,0,0,1-.24-.06v-.23a.63.63,0,0,0,.22.09.93.93,0,0,0,.24,0,.58.58,0,0,0,.35-.09.32.32,0,0,0,.12-.26.3.3,0,0,0-.11-.24.5.5,0,0,0-.31-.09h-.21v-.19h.22a.48.48,0,0,0,.27-.07.29.29,0,0,0,0-.42.55.55,0,0,0-.28-.07l-.21,0L14,154v-.21a1.22,1.22,0,0,1,.26-.06l.22,0a.71.71,0,0,1,.43.12.41.41,0,0,1,.16.34.38.38,0,0,1-.08.24A.42.42,0,0,1,14.74,154.51Z" transform="translate(-2.82 -9.15)"/><path d="M16.07,153.67a.52.52,0,0,1,.46.24,1.23,1.23,0,0,1,.15.67,1.25,1.25,0,0,1-.15.68.56.56,0,0,1-.92,0,1.25,1.25,0,0,1-.15-.68,1.23,1.23,0,0,1,.15-.67A.52.52,0,0,1,16.07,153.67Zm0,.19a.3.3,0,0,0-.28.18,1.25,1.25,0,0,0-.09.54,1.27,1.27,0,0,0,.09.55.3.3,0,0,0,.28.18.29.29,0,0,0,.28-.18,1.27,1.27,0,0,0,.09-.55,1.25,1.25,0,0,0-.09-.54A.29.29,0,0,0,16.07,153.86Z" transform="translate(-2.82 -9.15)"/><path d="M17.62,153.67a.51.51,0,0,1,.45.24,1.14,1.14,0,0,1,.16.67,1.16,1.16,0,0,1-.16.68.51.51,0,0,1-.45.24.52.52,0,0,1-.46-.24,1.25,1.25,0,0,1-.15-.68,1.23,1.23,0,0,1,.15-.67A.52.52,0,0,1,17.62,153.67Zm0,.19a.29.29,0,0,0-.28.18,1.12,1.12,0,0,0-.09.54,1.14,1.14,0,0,0,.09.55.29.29,0,0,0,.28.18.31.31,0,0,0,.28-.18,1.27,1.27,0,0,0,.09-.55,1.25,1.25,0,0,0-.09-.54A.31.31,0,0,0,17.62,153.86Z" transform="translate(-2.82 -9.15)"/><path d="M19.16,153.67a.52.52,0,0,1,.46.24,1.23,1.23,0,0,1,.16.67,1.24,1.24,0,0,1-.16.68.52.52,0,0,1-.46.24.5.5,0,0,1-.45-.24,1.16,1.16,0,0,1-.16-.68,1.14,1.14,0,0,1,.16-.67A.5.5,0,0,1,19.16,153.67Zm0,.19a.31.31,0,0,0-.28.18,1.25,1.25,0,0,0-.09.54,1.27,1.27,0,0,0,.09.55.31.31,0,0,0,.28.18.29.29,0,0,0,.28-.18,1.25,1.25,0,0,0,.1-.55,1.23,1.23,0,0,0-.1-.54A.29.29,0,0,0,19.16,153.86Z" transform="translate(-2.82 -9.15)"/><path d="M20.71,153.67a.52.52,0,0,1,.46.24,1.23,1.23,0,0,1,.15.67,1.25,1.25,0,0,1-.15.68.56.56,0,0,1-.92,0,1.25,1.25,0,0,1-.15-.68,1.23,1.23,0,0,1,.15-.67A.52.52,0,0,1,20.71,153.67Zm0,.19a.3.3,0,0,0-.28.18,1.25,1.25,0,0,0-.09.54,1.27,1.27,0,0,0,.09.55.31.31,0,0,0,.56,0,1.27,1.27,0,0,0,.09-.55A1.25,1.25,0,0,0,21,154,.3.3,0,0,0,20.71,153.86Z" transform="translate(-2.82 -9.15)"/><path d="M22.26,153.67a.51.51,0,0,1,.45.24,1.14,1.14,0,0,1,.16.67,1.16,1.16,0,0,1-.16.68.51.51,0,0,1-.45.24.51.51,0,0,1-.46-.24,1.24,1.24,0,0,1-.16-.68,1.23,1.23,0,0,1,.16-.67A.51.51,0,0,1,22.26,153.67Zm0,.19A.29.29,0,0,0,22,154a1.12,1.12,0,0,0-.09.54,1.14,1.14,0,0,0,.09.55.29.29,0,0,0,.28.18.31.31,0,0,0,.28-.18,1.27,1.27,0,0,0,.09-.55,1.25,1.25,0,0,0-.09-.54A.31.31,0,0,0,22.26,153.86Z" transform="translate(-2.82 -9.15)"/><g class="cls-16"><line class="cls-17" x1="39.41" y1="143.77" x2="39.41" y2="89.52"/></g><line x1="39.41" y1="143.77" x2="39.41" y2="142.56"/><line class="cls-18" x1="39.41" y1="143.77" x2="39.41" y2="142.56"/><path d="M38.05,155.26h.84v.2H37.76v-.2l.37-.37.3-.31a.71.71,0,0,0,.16-.22.34.34,0,0,0,0-.17.33.33,0,0,0-.1-.23.39.39,0,0,0-.26-.09,1,1,0,0,0-.24,0l-.27.12v-.24l.27-.09.23,0a.66.66,0,0,1,.44.14.45.45,0,0,1,.17.36.46.46,0,0,1-.05.21.88.88,0,0,1-.14.23l-.19.2Z" transform="translate(-2.82 -9.15)"/><path d="M39.9,153.67a.52.52,0,0,1,.46.24,1.23,1.23,0,0,1,.15.67,1.25,1.25,0,0,1-.15.68.56.56,0,0,1-.92,0,1.25,1.25,0,0,1-.15-.68,1.23,1.23,0,0,1,.15-.67A.52.52,0,0,1,39.9,153.67Zm0,.19a.31.31,0,0,0-.28.18,1.25,1.25,0,0,0-.09.54,1.27,1.27,0,0,0,.09.55.31.31,0,0,0,.28.18.29.29,0,0,0,.28-.18,1.27,1.27,0,0,0,.09-.55,1.25,1.25,0,0,0-.09-.54A.29.29,0,0,0,39.9,153.86Z" transform="translate(-2.82 -9.15)"/><path d="M41.45,153.67a.5.5,0,0,1,.45.24,1.14,1.14,0,0,1,.16.67,1.16,1.16,0,0,1-.16.68.5.5,0,0,1-.45.24.52.52,0,0,1-.46-.24,1.25,1.25,0,0,1-.15-.68,1.23,1.23,0,0,1,.15-.67A.52.52,0,0,1,41.45,153.67Zm0,.19a.29.29,0,0,0-.28.18,1.25,1.25,0,0,0-.09.54,1.27,1.27,0,0,0,.09.55.29.29,0,0,0,.28.18.3.3,0,0,0,.28-.18,1.27,1.27,0,0,0,.09-.55,1.25,1.25,0,0,0-.09-.54A.3.3,0,0,0,41.45,153.86Z" transform="translate(-2.82 -9.15)"/><path d="M43,153.67a.52.52,0,0,1,.45.24,1.23,1.23,0,0,1,.16.67,1.24,1.24,0,0,1-.16.68.52.52,0,0,1-.46.24.5.5,0,0,1-.45-.24,1.16,1.16,0,0,1-.16-.68,1.14,1.14,0,0,1,.16-.67A.51.51,0,0,1,43,153.67Zm0,.19a.29.29,0,0,0-.28.18,1.1,1.1,0,0,0-.1.54,1.12,1.12,0,0,0,.1.55.29.29,0,0,0,.28.18.29.29,0,0,0,.27-.18,1.12,1.12,0,0,0,.1-.55,1.1,1.1,0,0,0-.1-.54A.29.29,0,0,0,43,153.86Z" transform="translate(-2.82 -9.15)"/><path d="M44.54,153.67a.52.52,0,0,1,.46.24,1.23,1.23,0,0,1,.15.67,1.25,1.25,0,0,1-.15.68.56.56,0,0,1-.92,0,1.25,1.25,0,0,1-.15-.68,1.23,1.23,0,0,1,.15-.67A.52.52,0,0,1,44.54,153.67Zm0,.19a.31.31,0,0,0-.28.18,1.25,1.25,0,0,0-.09.54,1.27,1.27,0,0,0,.09.55.31.31,0,0,0,.28.18.29.29,0,0,0,.28-.18,1.27,1.27,0,0,0,.09-.55,1.25,1.25,0,0,0-.09-.54A.29.29,0,0,0,44.54,153.86Z" transform="translate(-2.82 -9.15)"/><path d="M46.09,153.67a.5.5,0,0,1,.45.24,1.14,1.14,0,0,1,.16.67,1.16,1.16,0,0,1-.16.68.5.5,0,0,1-.45.24.52.52,0,0,1-.46-.24,1.25,1.25,0,0,1-.15-.68,1.23,1.23,0,0,1,.15-.67A.52.52,0,0,1,46.09,153.67Zm0,.19a.29.29,0,0,0-.28.18,1.25,1.25,0,0,0-.09.54,1.27,1.27,0,0,0,.09.55.29.29,0,0,0,.28.18.31.31,0,0,0,.28-.18,1.27,1.27,0,0,0,.09-.55,1.25,1.25,0,0,0-.09-.54A.31.31,0,0,0,46.09,153.86Z" transform="translate(-2.82 -9.15)"/><g class="cls-16"><line class="cls-17" x1="63.24" y1="143.77" x2="63.24" y2="89.52"/></g><line x1="63.24" y1="143.77" x2="63.24" y2="142.56"/><line class="cls-18" x1="63.24" y1="143.77" x2="63.24" y2="142.56"/><polygon points="58.9 146.11 59.29 146.11 59.29 144.76 58.87 144.85 58.87 144.63 59.29 144.55 59.53 144.55 59.53 146.11 59.92 146.11 59.92 146.31 58.9 146.31 58.9 146.11"/><path d="M63.73,153.67a.52.52,0,0,1,.46.24,1.23,1.23,0,0,1,.16.67,1.24,1.24,0,0,1-.16.68.52.52,0,0,1-.46.24.5.5,0,0,1-.45-.24,1.16,1.16,0,0,1-.16-.68,1.14,1.14,0,0,1,.16-.67A.5.5,0,0,1,63.73,153.67Zm0,.19a.31.31,0,0,0-.28.18,1.25,1.25,0,0,0-.09.54,1.27,1.27,0,0,0,.09.55.31.31,0,0,0,.28.18.29.29,0,0,0,.28-.18,1.25,1.25,0,0,0,.1-.55A1.23,1.23,0,0,0,64,154,.29.29,0,0,0,63.73,153.86Z" transform="translate(-2.82 -9.15)"/><path d="M65.28,153.67a.5.5,0,0,1,.45.24,1.14,1.14,0,0,1,.16.67,1.16,1.16,0,0,1-.16.68.5.5,0,0,1-.45.24.52.52,0,0,1-.46-.24,1.25,1.25,0,0,1-.15-.68,1.23,1.23,0,0,1,.15-.67A.52.52,0,0,1,65.28,153.67Zm0,.19A.3.3,0,0,0,65,154a1.25,1.25,0,0,0-.09.54,1.27,1.27,0,0,0,.09.55.31.31,0,0,0,.56,0,1.27,1.27,0,0,0,.09-.55,1.25,1.25,0,0,0-.09-.54A.3.3,0,0,0,65.28,153.86Z" transform="translate(-2.82 -9.15)"/><path d="M66.83,153.67a.52.52,0,0,1,.45.24,1.14,1.14,0,0,1,.16.67,1.16,1.16,0,0,1-.16.68.52.52,0,0,1-.46.24.5.5,0,0,1-.45-.24,1.16,1.16,0,0,1-.16-.68,1.14,1.14,0,0,1,.16-.67A.51.51,0,0,1,66.83,153.67Zm0,.19a.29.29,0,0,0-.28.18,1.1,1.1,0,0,0-.1.54,1.12,1.12,0,0,0,.1.55.29.29,0,0,0,.28.18.31.31,0,0,0,.28-.18,1.27,1.27,0,0,0,.09-.55,1.25,1.25,0,0,0-.09-.54A.31.31,0,0,0,66.83,153.86Z" transform="translate(-2.82 -9.15)"/><path d="M68.37,153.67a.52.52,0,0,1,.46.24,1.23,1.23,0,0,1,.16.67,1.24,1.24,0,0,1-.16.68.52.52,0,0,1-.46.24.5.5,0,0,1-.45-.24,1.16,1.16,0,0,1-.16-.68,1.14,1.14,0,0,1,.16-.67A.5.5,0,0,1,68.37,153.67Zm0,.19a.31.31,0,0,0-.28.18,1.25,1.25,0,0,0-.09.54,1.27,1.27,0,0,0,.09.55.31.31,0,0,0,.28.18.29.29,0,0,0,.28-.18,1.27,1.27,0,0,0,.09-.55,1.25,1.25,0,0,0-.09-.54A.29.29,0,0,0,68.37,153.86Z" transform="translate(-2.82 -9.15)"/><path d="M69.92,153.67a.5.5,0,0,1,.45.24,1.14,1.14,0,0,1,.16.67,1.16,1.16,0,0,1-.16.68.5.5,0,0,1-.45.24.52.52,0,0,1-.46-.24,1.25,1.25,0,0,1-.15-.68,1.23,1.23,0,0,1,.15-.67A.52.52,0,0,1,69.92,153.67Zm0,.19a.3.3,0,0,0-.28.18,1.25,1.25,0,0,0-.09.54,1.27,1.27,0,0,0,.09.55.31.31,0,0,0,.56,0,1.27,1.27,0,0,0,.09-.55,1.25,1.25,0,0,0-.09-.54A.3.3,0,0,0,69.92,153.86Z" transform="translate(-2.82 -9.15)"/><g class="cls-16"><line class="cls-17" x1="87.07" y1="143.77" x2="87.07" y2="89.52"/></g><line x1="87.07" y1="143.77" x2="87.07" y2="142.56"/><line class="cls-18" x1="87.07" y1="143.77" x2="87.07" y2="142.56"/><path d="M86.28,153.7h.94v.2H86.5v.44a.19.19,0,0,1,.1,0h.11a.7.7,0,0,1,.47.16.6.6,0,0,1,.17.44.54.54,0,0,1-.18.44.75.75,0,0,1-.5.16l-.23,0-.23-.06v-.24a.85.85,0,0,0,.22.09.88.88,0,0,0,.24,0,.48.48,0,0,0,.32-.11.41.41,0,0,0,0-.58.48.48,0,0,0-.32-.11l-.19,0-.2.07Z" transform="translate(-2.82 -9.15)"/><path d="M88.34,153.67a.5.5,0,0,1,.45.24,1.14,1.14,0,0,1,.16.67,1.16,1.16,0,0,1-.16.68.5.5,0,0,1-.45.24.52.52,0,0,1-.46-.24,1.25,1.25,0,0,1-.15-.68,1.23,1.23,0,0,1,.15-.67A.52.52,0,0,1,88.34,153.67Zm0,.19a.29.29,0,0,0-.28.18,1.25,1.25,0,0,0-.09.54,1.27,1.27,0,0,0,.09.55.29.29,0,0,0,.28.18.31.31,0,0,0,.28-.18,1.27,1.27,0,0,0,.09-.55,1.25,1.25,0,0,0-.09-.54A.31.31,0,0,0,88.34,153.86Z" transform="translate(-2.82 -9.15)"/><path d="M89.88,153.67a.52.52,0,0,1,.46.24,1.23,1.23,0,0,1,.16.67,1.24,1.24,0,0,1-.16.68.52.52,0,0,1-.46.24.5.5,0,0,1-.45-.24,1.16,1.16,0,0,1-.16-.68,1.14,1.14,0,0,1,.16-.67A.51.51,0,0,1,89.88,153.67Zm0,.19a.29.29,0,0,0-.27.18,1.1,1.1,0,0,0-.1.54,1.12,1.12,0,0,0,.1.55.29.29,0,0,0,.27.18.29.29,0,0,0,.28-.18,1.12,1.12,0,0,0,.1-.55,1.1,1.1,0,0,0-.1-.54A.29.29,0,0,0,89.88,153.86Z" transform="translate(-2.82 -9.15)"/><path d="M91.43,153.67a.52.52,0,0,1,.46.24,1.23,1.23,0,0,1,.15.67,1.25,1.25,0,0,1-.15.68.56.56,0,0,1-.92,0,1.25,1.25,0,0,1-.15-.68,1.23,1.23,0,0,1,.15-.67A.52.52,0,0,1,91.43,153.67Zm0,.19a.3.3,0,0,0-.28.18,1.25,1.25,0,0,0-.09.54,1.27,1.27,0,0,0,.09.55.3.3,0,0,0,.28.18.29.29,0,0,0,.28-.18,1.27,1.27,0,0,0,.09-.55,1.25,1.25,0,0,0-.09-.54A.29.29,0,0,0,91.43,153.86Z" transform="translate(-2.82 -9.15)"/><path d="M93,153.67a.51.51,0,0,1,.45.24,1.14,1.14,0,0,1,.16.67,1.16,1.16,0,0,1-.16.68.51.51,0,0,1-.45.24.52.52,0,0,1-.46-.24,1.25,1.25,0,0,1-.15-.68,1.23,1.23,0,0,1,.15-.67A.52.52,0,0,1,93,153.67Zm0,.19a.29.29,0,0,0-.28.18,1.12,1.12,0,0,0-.09.54,1.14,1.14,0,0,0,.09.55.29.29,0,0,0,.28.18.31.31,0,0,0,.28-.18,1.27,1.27,0,0,0,.09-.55,1.25,1.25,0,0,0-.09-.54A.31.31,0,0,0,93,153.86Z" transform="translate(-2.82 -9.15)"/><path d="M46.48,157.05v.34a1.16,1.16,0,0,0-.34-.22,1,1,0,0,0-.39-.08.76.76,0,0,0-.62.25,1.31,1.31,0,0,0,0,1.42.78.78,0,0,0,.62.24,1,1,0,0,0,.39-.07,1.16,1.16,0,0,0,.34-.22V159a1.26,1.26,0,0,1-.35.17,1.68,1.68,0,0,1-.4,0,1.09,1.09,0,0,1-.84-.32,1.22,1.22,0,0,1-.31-.89,1.21,1.21,0,0,1,.31-.89,1.09,1.09,0,0,1,.84-.33,1.21,1.21,0,0,1,.75.22Z" transform="translate(-2.82 -9.15)"/><path d="M48.19,158.18a.6.6,0,0,0-.13-.38.48.48,0,0,0-.35-.14.56.56,0,0,0-.39.14.59.59,0,0,0-.17.38Zm.29.09v.14H47.14a.72.72,0,0,0,.18.46.65.65,0,0,0,.46.15,1.12,1.12,0,0,0,.32,0,1.32,1.32,0,0,0,.31-.12v.27a1.19,1.19,0,0,1-.32.1,1.84,1.84,0,0,1-.33,0,.94.94,0,0,1-.68-.24.89.89,0,0,1-.24-.66,1,1,0,0,1,.23-.69.83.83,0,0,1,.64-.25.68.68,0,0,1,.56.23A.88.88,0,0,1,48.48,158.27Z" transform="translate(-2.82 -9.15)"/><path d="M50.43,158.16v1.06h-.29v-1.05a.59.59,0,0,0-.1-.38.34.34,0,0,0-.29-.12.47.47,0,0,0-.37.15.57.57,0,0,0-.14.4v1H49v-1.76h.29v.27a.68.68,0,0,1,.25-.23.66.66,0,0,1,.32-.08.57.57,0,0,1,.47.19A.86.86,0,0,1,50.43,158.16Z" transform="translate(-2.82 -9.15)"/><path d="M51.3,157v.5h.6v.22h-.6v1a.42.42,0,0,0,.06.28.35.35,0,0,0,.24.06h.3v.24h-.3a.62.62,0,0,1-.46-.13.59.59,0,0,1-.13-.45v-1H50.8v-.22H51V157Z" transform="translate(-2.82 -9.15)"/><path d="M53.31,157.73l-.1,0-.13,0a.46.46,0,0,0-.38.17.65.65,0,0,0-.13.45v.93h-.29v-1.76h.29v.27a.76.76,0,0,1,.23-.24.8.8,0,0,1,.36-.07h.15Z" transform="translate(-2.82 -9.15)"/><path d="M55,158.22v1h-.3V159a.58.58,0,0,1-.25.24.77.77,0,0,1-.36.07.59.59,0,0,1-.43-.15.59.59,0,0,1,0-.85,1,1,0,0,1,.6-.15h.4v0a.37.37,0,0,0-.13-.31.58.58,0,0,0-.37-.11,1,1,0,0,0-.3,0,1.28,1.28,0,0,0-.27.11v-.27a1.58,1.58,0,0,1,.31-.09,1.43,1.43,0,0,1,.29,0,.71.71,0,0,1,.57.2A.82.82,0,0,1,55,158.22Zm-.58.11a1.08,1.08,0,0,0-.49.08.29.29,0,0,0-.14.28.28.28,0,0,0,.1.24.41.41,0,0,0,.28.09.48.48,0,0,0,.39-.17.64.64,0,0,0,.14-.45v-.07Z" transform="translate(-2.82 -9.15)"/><rect x="52.79" y="147.62" width="0.29" height="2.45"/><path d="M58.24,156.78a3.39,3.39,0,0,0-.32.71,2.64,2.64,0,0,0,0,1.44,3.18,3.18,0,0,0,.32.71H58a3.23,3.23,0,0,1-.36-.72,2.16,2.16,0,0,1,0-1.42,2.69,2.69,0,0,1,.36-.72Z" transform="translate(-2.82 -9.15)"/><path d="M59.08,157.73a.66.66,0,0,1,.23-.24.74.74,0,0,1,.34-.07.64.64,0,0,1,.53.25,1.22,1.22,0,0,1,0,1.34.64.64,0,0,1-.53.25.74.74,0,0,1-.34-.07.63.63,0,0,1-.23-.23v.26h-.29v-2.45h.29Zm1,.61a.82.82,0,0,0-.14-.5.43.43,0,0,0-.36-.18.4.4,0,0,0-.36.18,1,1,0,0,0,0,1,.38.38,0,0,0,.36.18.4.4,0,0,0,.36-.18A.82.82,0,0,0,60.08,158.34Z" transform="translate(-2.82 -9.15)"/><path d="M62.14,158.34a.82.82,0,0,0-.14-.5.43.43,0,0,0-.36-.18.4.4,0,0,0-.36.18,1,1,0,0,0,0,1,.38.38,0,0,0,.36.18.4.4,0,0,0,.36-.18A.82.82,0,0,0,62.14,158.34Zm-1,.62v.93h-.29v-2.43h.29v.27a.66.66,0,0,1,.23-.24.74.74,0,0,1,.34-.07.66.66,0,0,1,.53.25,1.22,1.22,0,0,1,0,1.34.66.66,0,0,1-.53.25.74.74,0,0,1-.34-.07A.63.63,0,0,1,61.14,159Z" transform="translate(-2.82 -9.15)"/><path d="M62.87,156.78h.26a3.4,3.4,0,0,1,.35.72,2.16,2.16,0,0,1,0,1.42,3.65,3.65,0,0,1-.35.72h-.26a3.18,3.18,0,0,0,.32-.71,2.64,2.64,0,0,0,0-1.44A3.39,3.39,0,0,0,62.87,156.78Z" transform="translate(-2.82 -9.15)"/><g class="cls-16"><line class="cls-17" x1="12.01" y1="143.77" x2="90.65" y2="143.77"/></g><line x1="12.01" y1="143.77" x2="13.22" y2="143.77"/><line class="cls-18" x1="12.01" y1="143.77" x2="13.22" y2="143.77"/><path d="M11,152.05a.53.53,0,0,1,.45.23,1.2,1.2,0,0,1,.16.68,1.16,1.16,0,0,1-.16.68.54.54,0,0,1-.46.23.51.51,0,0,1-.45-.23,1.16,1.16,0,0,1-.16-.68,1.2,1.2,0,0,1,.16-.68A.53.53,0,0,1,11,152.05Zm0,.19a.29.29,0,0,0-.28.18,1.1,1.1,0,0,0-.1.54,1.17,1.17,0,0,0,.1.55.29.29,0,0,0,.28.18.31.31,0,0,0,.28-.18,1.34,1.34,0,0,0,.09-.55,1.25,1.25,0,0,0-.09-.54A.31.31,0,0,0,11,152.24Z" transform="translate(-2.82 -9.15)"/><rect x="9.23" y="144.39" width="0.25" height="0.3"/><path d="M13.34,152.05a.53.53,0,0,1,.45.23A1.2,1.2,0,0,1,14,153a1.16,1.16,0,0,1-.16.68.54.54,0,0,1-.46.23.51.51,0,0,1-.45-.23,1.16,1.16,0,0,1-.16-.68,1.2,1.2,0,0,1,.16-.68A.53.53,0,0,1,13.34,152.05Zm0,.19a.29.29,0,0,0-.28.18,1.1,1.1,0,0,0-.1.54,1.17,1.17,0,0,0,.1.55.29.29,0,0,0,.28.18.31.31,0,0,0,.28-.18,1.34,1.34,0,0,0,.09-.55,1.25,1.25,0,0,0-.09-.54A.31.31,0,0,0,13.34,152.24Z" transform="translate(-2.82 -9.15)"/><g class="cls-16"><line class="cls-17" x1="12.01" y1="134.73" x2="90.65" y2="134.73"/></g><line x1="12.01" y1="134.73" x2="13.22" y2="134.73"/><line class="cls-18" x1="12.01" y1="134.73" x2="13.22" y2="134.73"/><polygon points="6.18 135.44 6.57 135.44 6.57 134.1 6.15 134.19 6.15 133.97 6.57 133.88 6.81 133.88 6.81 135.44 7.2 135.44 7.2 135.64 6.18 135.64 6.18 135.44"/><path d="M11,143a.54.54,0,0,1,.46.23,1.52,1.52,0,0,1,0,1.36.54.54,0,0,1-.46.23.51.51,0,0,1-.45-.23,1.53,1.53,0,0,1,0-1.36A.52.52,0,0,1,11,143Zm0,.18a.3.3,0,0,0-.27.19,1.51,1.51,0,0,0,0,1.08.29.29,0,0,0,.27.18.29.29,0,0,0,.28-.18,1.51,1.51,0,0,0,0-1.08A.3.3,0,0,0,11,143.19Z" transform="translate(-2.82 -9.15)"/><rect x="9.23" y="135.34" width="0.25" height="0.3"/><path d="M13.33,143a.54.54,0,0,1,.46.23,1.52,1.52,0,0,1,0,1.36.54.54,0,0,1-.46.23.51.51,0,0,1-.45-.23,1.53,1.53,0,0,1,0-1.36A.52.52,0,0,1,13.33,143Zm0,.18a.32.32,0,0,0-.28.19,1.67,1.67,0,0,0,0,1.08.31.31,0,0,0,.28.18.29.29,0,0,0,.28-.18,1.51,1.51,0,0,0,0-1.08A.3.3,0,0,0,13.33,143.19Z" transform="translate(-2.82 -9.15)"/><g class="cls-16"><line class="cls-17" x1="12.01" y1="125.68" x2="90.65" y2="125.68"/></g><line x1="12.01" y1="125.68" x2="13.22" y2="125.68"/><line class="cls-18" x1="12.01" y1="125.68" x2="13.22" y2="125.68"/><path d="M9.16,135.56H10v.2H8.87v-.2l.37-.38.3-.3a1.06,1.06,0,0,0,.16-.22.41.41,0,0,0,.05-.18.33.33,0,0,0-.1-.23.43.43,0,0,0-.26-.09,1,1,0,0,0-.24,0l-.27.12v-.24l.27-.09.24,0a.65.65,0,0,1,.43.14.45.45,0,0,1,.17.37.65.65,0,0,1,0,.2,1.11,1.11,0,0,1-.15.23l-.19.2Z" transform="translate(-2.82 -9.15)"/><path d="M11,134a.52.52,0,0,1,.46.24,1.26,1.26,0,0,1,.16.68,1.29,1.29,0,0,1-.16.68.54.54,0,0,1-.46.23.51.51,0,0,1-.45-.23,1.2,1.2,0,0,1-.16-.68,1.18,1.18,0,0,1,.16-.68A.51.51,0,0,1,11,134Zm0,.19a.29.29,0,0,0-.27.18,1.15,1.15,0,0,0-.1.55,1.1,1.1,0,0,0,.1.54.29.29,0,0,0,.27.18.29.29,0,0,0,.28-.18,1.1,1.1,0,0,0,.1-.54,1.15,1.15,0,0,0-.1-.55A.29.29,0,0,0,11,134.15Z" transform="translate(-2.82 -9.15)"/><rect x="9.23" y="126.3" width="0.25" height="0.3"/><path d="M13.33,134a.52.52,0,0,1,.46.24,1.26,1.26,0,0,1,.16.68,1.29,1.29,0,0,1-.16.68.54.54,0,0,1-.46.23.51.51,0,0,1-.45-.23,1.2,1.2,0,0,1-.16-.68,1.18,1.18,0,0,1,.16-.68A.51.51,0,0,1,13.33,134Zm0,.19a.31.31,0,0,0-.28.18,1.3,1.3,0,0,0-.09.55,1.25,1.25,0,0,0,.09.54.31.31,0,0,0,.28.18.29.29,0,0,0,.28-.18,1.1,1.1,0,0,0,.1-.54,1.15,1.15,0,0,0-.1-.55A.29.29,0,0,0,13.33,134.15Z" transform="translate(-2.82 -9.15)"/><g class="cls-16"><line class="cls-17" x1="12.01" y1="116.64" x2="90.65" y2="116.64"/></g><line x1="12.01" y1="116.64" x2="13.22" y2="116.64"/><line class="cls-18" x1="12.01" y1="116.64" x2="13.22" y2="116.64"/><path d="M9.68,125.77a.4.4,0,0,1,.27.15.45.45,0,0,1,.1.28.5.5,0,0,1-.18.41.85.85,0,0,1-.52.14l-.23,0a1.2,1.2,0,0,1-.24-.06v-.23a.85.85,0,0,0,.22.09,1,1,0,0,0,.25,0,.55.55,0,0,0,.34-.09.3.3,0,0,0,.12-.26A.3.3,0,0,0,9.7,126a.48.48,0,0,0-.31-.09h-.2v-.19H9.4a.48.48,0,0,0,.27-.07.24.24,0,0,0,.1-.21.23.23,0,0,0-.1-.2.47.47,0,0,0-.28-.08l-.21,0-.25.07V125l.26-.06.22,0a.68.68,0,0,1,.44.13.41.41,0,0,1,.16.33.37.37,0,0,1-.09.25A.57.57,0,0,1,9.68,125.77Z" transform="translate(-2.82 -9.15)"/><path d="M11,124.92a.52.52,0,0,1,.46.24,1.24,1.24,0,0,1,.16.68,1.23,1.23,0,0,1-.16.67.52.52,0,0,1-.46.24.5.5,0,0,1-.45-.24,1.14,1.14,0,0,1-.16-.67,1.16,1.16,0,0,1,.16-.68A.51.51,0,0,1,11,124.92Zm0,.19a.29.29,0,0,0-.27.18,1.12,1.12,0,0,0-.1.55,1.1,1.1,0,0,0,.1.54.29.29,0,0,0,.27.18.29.29,0,0,0,.28-.18,1.1,1.1,0,0,0,.1-.54,1.12,1.12,0,0,0-.1-.55A.29.29,0,0,0,11,125.11Z" transform="translate(-2.82 -9.15)"/><rect x="9.23" y="117.26" width="0.25" height="0.3"/><path d="M13.33,124.92a.52.52,0,0,1,.46.24,1.24,1.24,0,0,1,.16.68,1.23,1.23,0,0,1-.16.67.52.52,0,0,1-.46.24.5.5,0,0,1-.45-.24,1.14,1.14,0,0,1-.16-.67,1.16,1.16,0,0,1,.16-.68A.51.51,0,0,1,13.33,124.92Zm0,.19a.31.31,0,0,0-.28.18,1.27,1.27,0,0,0-.09.55,1.25,1.25,0,0,0,.09.54.31.31,0,0,0,.28.18.29.29,0,0,0,.28-.18,1.1,1.1,0,0,0,.1-.54,1.12,1.12,0,0,0-.1-.55A.29.29,0,0,0,13.33,125.11Z" transform="translate(-2.82 -9.15)"/><g class="cls-16"><line class="cls-17" x1="12.01" y1="107.6" x2="90.65" y2="107.6"/></g><line x1="12.01" y1="107.6" x2="13.22" y2="107.6"/><line class="cls-18" x1="12.01" y1="107.6" x2="13.22" y2="107.6"/><path d="M9.55,115.91h.3v1.15h.26v.2H9.85v.41H9.61v-.41h-.8V117Zm.06.21-.6.94h.6Z" transform="translate(-2.82 -9.15)"/><path d="M11,115.88a.52.52,0,0,1,.46.24,1.23,1.23,0,0,1,.16.67,1.24,1.24,0,0,1-.16.68.52.52,0,0,1-.46.23.49.49,0,0,1-.45-.23,1.16,1.16,0,0,1-.16-.68,1.14,1.14,0,0,1,.16-.67A.51.51,0,0,1,11,115.88Zm0,.19a.29.29,0,0,0-.27.18,1.1,1.1,0,0,0-.1.54,1.12,1.12,0,0,0,.1.55.29.29,0,0,0,.27.18.29.29,0,0,0,.28-.18,1.12,1.12,0,0,0,.1-.55,1.1,1.1,0,0,0-.1-.54A.29.29,0,0,0,11,116.07Z" transform="translate(-2.82 -9.15)"/><rect x="9.23" y="108.22" width="0.25" height="0.3"/><path d="M13.33,115.88a.52.52,0,0,1,.46.24,1.23,1.23,0,0,1,.16.67,1.24,1.24,0,0,1-.16.68.52.52,0,0,1-.46.23.49.49,0,0,1-.45-.23,1.16,1.16,0,0,1-.16-.68,1.14,1.14,0,0,1,.16-.67A.51.51,0,0,1,13.33,115.88Zm0,.19a.31.31,0,0,0-.28.18,1.25,1.25,0,0,0-.09.54,1.27,1.27,0,0,0,.09.55.31.31,0,0,0,.28.18.29.29,0,0,0,.28-.18,1.12,1.12,0,0,0,.1-.55,1.1,1.1,0,0,0-.1-.54A.29.29,0,0,0,13.33,116.07Z" transform="translate(-2.82 -9.15)"/><g class="cls-16"><line class="cls-17" x1="12.01" y1="98.56" x2="90.65" y2="98.56"/></g><line x1="12.01" y1="98.56" x2="13.22" y2="98.56"/><line class="cls-18" x1="12.01" y1="98.56" x2="13.22" y2="98.56"/><path d="M9,106.87H9.9v.2H9.18v.43l.1,0h.11a.63.63,0,0,1,.46.16.63.63,0,0,1,0,.88.76.76,0,0,1-.5.15H9.12a2.1,2.1,0,0,1-.24-.06v-.24a1,1,0,0,0,.22.09,1,1,0,0,0,.24,0,.48.48,0,0,0,.33-.1.41.41,0,0,0,0-.58.44.44,0,0,0-.33-.11.65.65,0,0,0-.19,0l-.19.06Z" transform="translate(-2.82 -9.15)"/><path d="M11,106.84a.54.54,0,0,1,.46.23,1.29,1.29,0,0,1,.16.68,1.24,1.24,0,0,1-.16.68.52.52,0,0,1-.46.23.49.49,0,0,1-.45-.23,1.16,1.16,0,0,1-.16-.68,1.2,1.2,0,0,1,.16-.68A.52.52,0,0,1,11,106.84Zm0,.19a.29.29,0,0,0-.27.18,1.1,1.1,0,0,0-.1.54,1.17,1.17,0,0,0,.1.55.29.29,0,0,0,.27.18.29.29,0,0,0,.28-.18,1.17,1.17,0,0,0,.1-.55,1.1,1.1,0,0,0-.1-.54A.29.29,0,0,0,11,107Z" transform="translate(-2.82 -9.15)"/><rect x="9.23" y="99.18" width="0.25" height="0.3"/><path d="M13.33,106.84a.54.54,0,0,1,.46.23,1.29,1.29,0,0,1,.16.68,1.24,1.24,0,0,1-.16.68.52.52,0,0,1-.46.23.49.49,0,0,1-.45-.23,1.16,1.16,0,0,1-.16-.68,1.2,1.2,0,0,1,.16-.68A.52.52,0,0,1,13.33,106.84Zm0,.19a.31.31,0,0,0-.28.18,1.25,1.25,0,0,0-.09.54,1.34,1.34,0,0,0,.09.55.31.31,0,0,0,.28.18.29.29,0,0,0,.28-.18,1.17,1.17,0,0,0,.1-.55,1.1,1.1,0,0,0-.1-.54A.29.29,0,0,0,13.33,107Z" transform="translate(-2.82 -9.15)"/><g class="cls-16"><line class="cls-17" x1="12.01" y1="89.52" x2="90.65" y2="89.52"/></g><line x1="12.01" y1="89.52" x2="13.22" y2="89.52"/><line class="cls-18" x1="12.01" y1="89.52" x2="13.22" y2="89.52"/><path d="M10,97.87v.21L9.79,98a.55.55,0,0,0-.18,0,.44.44,0,0,0-.37.16.86.86,0,0,0-.14.48.55.55,0,0,1,.18-.16.46.46,0,0,1,.23,0,.54.54,0,0,1,.42.16.6.6,0,0,1,.16.43.62.62,0,0,1-.16.44.59.59,0,0,1-.43.16A.54.54,0,0,1,9,99.39a1.18,1.18,0,0,1-.16-.68,1,1,0,0,1,.19-.66.66.66,0,0,1,.54-.25h.18A1.39,1.39,0,0,1,10,97.87Zm-.47.74a.35.35,0,0,0-.26.11.49.49,0,0,0-.09.3.5.5,0,0,0,.09.31.34.34,0,0,0,.26.1.32.32,0,0,0,.25-.1.45.45,0,0,0,.1-.31.44.44,0,0,0-.1-.3A.33.33,0,0,0,9.5,98.61Z" transform="translate(-2.82 -9.15)"/><path d="M11,97.8a.54.54,0,0,1,.46.23,1.29,1.29,0,0,1,.16.68,1.26,1.26,0,0,1-.16.68.54.54,0,0,1-.46.23.51.51,0,0,1-.45-.23,1.18,1.18,0,0,1-.16-.68,1.2,1.2,0,0,1,.16-.68A.52.52,0,0,1,11,97.8ZM11,98a.29.29,0,0,0-.27.18,1.51,1.51,0,0,0,0,1.08.29.29,0,0,0,.27.18.29.29,0,0,0,.28-.18,1.51,1.51,0,0,0,0-1.08A.29.29,0,0,0,11,98Z" transform="translate(-2.82 -9.15)"/><rect x="9.23" y="90.14" width="0.25" height="0.3"/><path d="M13.33,97.8a.54.54,0,0,1,.46.23,1.29,1.29,0,0,1,.16.68,1.26,1.26,0,0,1-.16.68.54.54,0,0,1-.46.23.51.51,0,0,1-.45-.23,1.18,1.18,0,0,1-.16-.68,1.2,1.2,0,0,1,.16-.68A.52.52,0,0,1,13.33,97.8Zm0,.19a.31.31,0,0,0-.28.18,1.66,1.66,0,0,0,0,1.08.31.31,0,0,0,.28.18.29.29,0,0,0,.28-.18,1.51,1.51,0,0,0,0-1.08A.29.29,0,0,0,13.33,98Z" transform="translate(-2.82 -9.15)"/><path d="M5.11,140.08H6v-.4a.5.5,0,0,0-.11-.34.39.39,0,0,0-.31-.12.39.39,0,0,0-.31.12.45.45,0,0,0-.11.34Zm1-.79a.55.55,0,0,1,.15-.2,1.67,1.67,0,0,1,.31-.2l.65-.32v.34l-.61.3a1,1,0,0,0-.31.23.51.51,0,0,0-.08.3v.34h1v.32H4.85v-.72a1,1,0,0,1,.16-.6.67.67,0,0,1,.52-.2.62.62,0,0,1,.37.11A.49.49,0,0,1,6.1,139.29Z" transform="translate(-2.82 -9.15)"/><path d="M4.85,137.69v-.36l2.36-.9v.33L6.6,137V138l.61.22v.33Zm.31-.18,1.18.43v-.87Z" transform="translate(-2.82 -9.15)"/><polygon points="2.03 126.93 2.03 126.46 3.64 125.86 2.03 125.26 2.03 124.78 4.39 124.78 4.39 125.09 2.32 125.09 3.94 125.7 3.94 126.02 2.32 126.62 4.39 126.62 4.39 126.93 2.03 126.93"/><path d="M5.78,130.92a.72.72,0,0,1-.29-.25.69.69,0,0,1-.1-.36.5.5,0,0,1,.2-.42.88.88,0,0,1,.55-.15H7.21V130H6.15a.64.64,0,0,0-.38.09.32.32,0,0,0-.12.27.46.46,0,0,0,.15.36.65.65,0,0,0,.41.13h1v.29H6.15a.64.64,0,0,0-.38.09.32.32,0,0,0-.12.27.46.46,0,0,0,.15.36.65.65,0,0,0,.41.13h1v.29H5.44V132h.27a.69.69,0,0,1-.24-.24.67.67,0,0,1-.08-.33.59.59,0,0,1,.1-.33A.63.63,0,0,1,5.78,130.92Z" transform="translate(-2.82 -9.15)"/><path d="M6.17,127.94a.61.61,0,0,0-.39.13.48.48,0,0,0-.14.35.52.52,0,0,0,.14.38.55.55,0,0,0,.39.17Zm.08-.29h.14V129a.65.65,0,0,0,.46-.18.58.58,0,0,0,.16-.45A1.12,1.12,0,0,0,7,128a1.37,1.37,0,0,0-.13-.31h.28a1.7,1.7,0,0,1,.1.32,1.84,1.84,0,0,1,0,.33.83.83,0,0,1-.91.91,1,1,0,0,1-.69-.23.8.8,0,0,1-.26-.63.72.72,0,0,1,.23-.56A.92.92,0,0,1,6.25,127.65Z" transform="translate(-2.82 -9.15)"/><path d="M5.78,125.81a.74.74,0,0,1-.29-.26.69.69,0,0,1-.1-.36.5.5,0,0,1,.2-.42.88.88,0,0,1,.55-.15H7.21v.29H6.15a.64.64,0,0,0-.38.09.32.32,0,0,0-.12.27.46.46,0,0,0,.15.36.59.59,0,0,0,.41.13h1v.29H6.15a.64.64,0,0,0-.38.09.32.32,0,0,0-.12.27.46.46,0,0,0,.15.36.59.59,0,0,0,.41.13h1v.29H5.44v-.29h.27a.69.69,0,0,1-.24-.24.67.67,0,0,1-.08-.33.55.55,0,0,1,.1-.32A.56.56,0,0,1,5.78,125.81Z" transform="translate(-2.82 -9.15)"/><path d="M5.39,123.36a.79.79,0,0,1,.25-.6,1,1,0,0,1,.68-.21,1,1,0,0,1,.69.21.78.78,0,0,1,.24.6A.75.75,0,0,1,7,124a1,1,0,0,1-.69.22,1,1,0,0,1-.68-.22A.75.75,0,0,1,5.39,123.36Zm.25,0a.41.41,0,0,0,.19.36.73.73,0,0,0,.49.14.86.86,0,0,0,.51-.13.47.47,0,0,0,0-.74.86.86,0,0,0-.51-.13.81.81,0,0,0-.49.13A.42.42,0,0,0,5.64,123.36Z" transform="translate(-2.82 -9.15)"/><path d="M5.71,121.05a.42.42,0,0,0,0,.1.51.51,0,0,0,0,.13.47.47,0,0,0,.17.38.68.68,0,0,0,.46.13h.93v.29H5.44v-.29h.27a.56.56,0,0,1-.24-.24.72.72,0,0,1-.08-.35s0,0,0-.07a.25.25,0,0,1,0-.08Z" transform="translate(-2.82 -9.15)"/><path d="M7.37,120a1.08,1.08,0,0,1,.41.24.45.45,0,0,1,.1.31v.23H7.64v-.17a.26.26,0,0,0-.06-.18.77.77,0,0,0-.27-.15l-.13-.05L5.44,121v-.3l1.38-.56-1.38-.55v-.3Z" transform="translate(-2.82 -9.15)"/><path d="M4.75,117.12a3.64,3.64,0,0,0,.72.31,2.55,2.55,0,0,0,.72.1,2.46,2.46,0,0,0,.72-.1,3.2,3.2,0,0,0,.72-.31v.25a2.65,2.65,0,0,1-.72.35,2.19,2.19,0,0,1-1.43,0,2.85,2.85,0,0,1-.73-.35Z" transform="translate(-2.82 -9.15)"/><path d="M6.87,114.94H6.24v.52H6v-.83H7a1.25,1.25,0,0,1,.2.4,1.86,1.86,0,0,1,.06.48,1.13,1.13,0,0,1-.32.86,1.22,1.22,0,0,1-.9.31,1.25,1.25,0,0,1-.9-.31,1.14,1.14,0,0,1-.33-.86,1.61,1.61,0,0,1,.06-.44,1.63,1.63,0,0,1,.17-.38h.34a1.48,1.48,0,0,0-.23.38,1.14,1.14,0,0,0-.07.41.82.82,0,0,0,.24.65,1.07,1.07,0,0,0,.72.21,1.07,1.07,0,0,0,.72-.21.82.82,0,0,0,.24-.65,1.39,1.39,0,0,0,0-.3A.85.85,0,0,0,6.87,114.94Z" transform="translate(-2.82 -9.15)"/><path d="M4.85,114.05v-.81a.89.89,0,0,1,.15-.56.52.52,0,0,1,.43-.2.54.54,0,0,1,.35.1.49.49,0,0,1,.16.3.6.6,0,0,1,.21-.37.66.66,0,0,1,.4-.13.61.61,0,0,1,.49.22,1,1,0,0,1,.17.6v.85Zm.26-.32h.71v-.47a.56.56,0,0,0-.09-.35.3.3,0,0,0-.26-.11.34.34,0,0,0-.27.11.56.56,0,0,0-.09.35Zm1,0H7v-.51a.57.57,0,0,0-.11-.38.42.42,0,0,0-.33-.12.41.41,0,0,0-.32.12.57.57,0,0,0-.11.38Z" transform="translate(-2.82 -9.15)"/><path d="M4.75,111.9v-.26a3.72,3.72,0,0,1,.73-.35,2.58,2.58,0,0,1,.71-.12,2.58,2.58,0,0,1,.72.12,3.4,3.4,0,0,1,.72.35v.26a3.24,3.24,0,0,0-.72-.32,2.84,2.84,0,0,0-.72-.1,3,3,0,0,0-.72.1A3.71,3.71,0,0,0,4.75,111.9Z" transform="translate(-2.82 -9.15)"/><g class="cls-16"><polyline class="cls-19" points="15.58 90.76 39.41 105.34 63.24 117.64 87.07 124.4"/></g><line class="cls-20" x1="12.01" y1="143.77" x2="12.01" y2="89.52"/><line class="cls-20" x1="12.01" y1="143.77" x2="90.65" y2="143.77"/><g class="cls-16"><g class="cls-21"><path class="cls-10" d="M18.4,100.92a1,1,0,0,0,.71-.3,1,1,0,0,0,.3-.71,1,1,0,0,0-.3-.71,1,1,0,0,0-.71-.29,1,1,0,0,0-1,1,1,1,0,0,0,.3.71A1,1,0,0,0,18.4,100.92Z" transform="translate(-2.82 -9.15)"/><path class="cls-22" d="M18.4,100.92a1,1,0,0,0,.71-.3,1,1,0,0,0,.3-.71,1,1,0,0,0-.3-.71,1,1,0,0,0-.71-.29,1,1,0,0,0-1,1,1,1,0,0,0,.3.71A1,1,0,0,0,18.4,100.92Z" transform="translate(-2.82 -9.15)"/></g><g class="cls-23"><path class="cls-10" d="M42.23,115.5a1,1,0,0,0,.71-.29,1,1,0,0,0,0-1.43,1,1,0,0,0-.71-.29,1,1,0,1,0,0,2Z" transform="translate(-2.82 -9.15)"/><path class="cls-22" d="M42.23,115.5a1,1,0,0,0,.71-.29,1,1,0,0,0,0-1.43,1,1,0,0,0-.71-.29,1,1,0,1,0,0,2Z" transform="translate(-2.82 -9.15)"/></g><g class="cls-24"><path class="cls-10" d="M66.06,127.8a1,1,0,0,0,.71-.29,1,1,0,0,0,0-1.43,1,1,0,0,0-.71-.29,1,1,0,0,0-.72,1.72A1.06,1.06,0,0,0,66.06,127.8Z" transform="translate(-2.82 -9.15)"/><path class="cls-22" d="M66.06,127.8a1,1,0,0,0,.71-.29,1,1,0,0,0,0-1.43,1,1,0,0,0-.71-.29,1,1,0,0,0-.72,1.72A1.06,1.06,0,0,0,66.06,127.8Z" transform="translate(-2.82 -9.15)"/></g><g class="cls-25"><path class="cls-10" d="M89.89,134.56a1,1,0,0,0,.72-.3,1,1,0,0,0,.29-.71,1,1,0,1,0-2,0,1,1,0,0,0,.29.71A1,1,0,0,0,89.89,134.56Z" transform="translate(-2.82 -9.15)"/><path class="cls-22" d="M89.89,134.56a1,1,0,0,0,.72-.3,1,1,0,0,0,.29-.71,1,1,0,1,0-2,0,1,1,0,0,0,.29.71A1,1,0,0,0,89.89,134.56Z" transform="translate(-2.82 -9.15)"/></g></g><path d="M15,95.11v.94h.45a.57.57,0,0,0,.39-.12.43.43,0,0,0,.13-.35.45.45,0,0,0-.13-.35.57.57,0,0,0-.39-.12Zm.9,1.11a.65.65,0,0,1,.22.17,1.41,1.41,0,0,1,.22.35l.37.72h-.39L16,96.79a1,1,0,0,0-.26-.36.62.62,0,0,0-.33-.08H15v1.11h-.37V94.82h.82a1.08,1.08,0,0,1,.68.19.71.71,0,0,1,.22.57.77.77,0,0,1-.11.42A.62.62,0,0,1,15.92,96.22Z" transform="translate(-2.82 -9.15)"/><path d="M17.73,94.82h.41l1,2.64h-.37l-.24-.67h-1.2l-.25.67h-.37Zm.2.35-.49,1.32h1Z" transform="translate(-2.82 -9.15)"/><polygon points="16.72 85.67 17.26 85.67 17.94 87.46 18.62 85.67 19.16 85.67 19.16 88.31 18.81 88.31 18.81 85.99 18.12 87.8 17.76 87.8 17.07 85.99 17.07 88.31 16.72 88.31 16.72 85.67"/><path d="M25.39,95.86a.82.82,0,0,1,.29-.32.75.75,0,0,1,.4-.11.58.58,0,0,1,.48.22,1,1,0,0,1,.17.62v1.19H26.4V96.28a.74.74,0,0,0-.1-.43.36.36,0,0,0-.31-.13.47.47,0,0,0-.4.17.64.64,0,0,0-.15.45v1.12h-.33V96.28a.74.74,0,0,0-.1-.43.37.37,0,0,0-.31-.13.5.5,0,0,0-.41.17.69.69,0,0,0-.14.45v1.12h-.33v-2h.33v.31a.71.71,0,0,1,.64-.36.62.62,0,0,1,.37.11A.72.72,0,0,1,25.39,95.86Z" transform="translate(-2.82 -9.15)"/><path d="M28.76,96.3a.61.61,0,0,0-.15-.43.48.48,0,0,0-.39-.16.59.59,0,0,0-.43.15.64.64,0,0,0-.19.44Zm.33.09v.16H27.58a.77.77,0,0,0,.21.51.69.69,0,0,0,.51.18,1.49,1.49,0,0,0,.36,0,1,1,0,0,0,.35-.14v.31a1.37,1.37,0,0,1-.36.11,1.55,1.55,0,0,1-.37,0,1.05,1.05,0,0,1-.76-.27,1,1,0,0,1-.28-.75,1.12,1.12,0,0,1,.26-.77,1,1,0,0,1,.72-.29.84.84,0,0,1,.64.26A1,1,0,0,1,29.09,96.39Z" transform="translate(-2.82 -9.15)"/><path d="M31.18,95.86a.91.91,0,0,1,.29-.32.78.78,0,0,1,.41-.11.61.61,0,0,1,.48.22,1,1,0,0,1,.17.62v1.19H32.2V96.28a.83.83,0,0,0-.1-.43.36.36,0,0,0-.31-.13.5.5,0,0,0-.41.17.64.64,0,0,0-.14.45v1.12h-.33V96.28a.83.83,0,0,0-.1-.43.38.38,0,0,0-.32-.13.48.48,0,0,0-.4.17.64.64,0,0,0-.15.45v1.12h-.32v-2h.32v.31a.87.87,0,0,1,.27-.27.76.76,0,0,1,.38-.09.67.67,0,0,1,.37.11A.63.63,0,0,1,31.18,95.86Z" transform="translate(-2.82 -9.15)"/><path d="M34,95.43a.85.85,0,0,1,.67.28,1.07,1.07,0,0,1,.25.76,1.06,1.06,0,0,1-.25.76.82.82,0,0,1-.67.28.83.83,0,0,1-.67-.28,1.1,1.1,0,0,1-.24-.76,1.12,1.12,0,0,1,.24-.76A.87.87,0,0,1,34,95.43Zm0,.28a.48.48,0,0,0-.41.21.9.9,0,0,0-.16.55,1,1,0,0,0,.15.57.52.52,0,0,0,.42.2.5.5,0,0,0,.42-.2,1,1,0,0,0,.15-.57.9.9,0,0,0-.15-.55A.49.49,0,0,0,34,95.71Z" transform="translate(-2.82 -9.15)"/><path d="M36.57,95.79a.31.31,0,0,0-.12-.05l-.14,0a.56.56,0,0,0-.43.18.79.79,0,0,0-.15.52v1H35.4v-2h.33v.31a.7.7,0,0,1,.27-.27.82.82,0,0,1,.4-.09h.17Z" transform="translate(-2.82 -9.15)"/><path d="M37.74,97.64a1.07,1.07,0,0,1-.27.46.49.49,0,0,1-.35.11h-.26v-.27h.19a.33.33,0,0,0,.21-.06,1.19,1.19,0,0,0,.17-.3l0-.15-.8-2H37L37.65,97l.62-1.55h.35Z" transform="translate(-2.82 -9.15)"/><path d="M41,95.43Zm-.82,1.25v-1.2h.33v1.19a.62.62,0,0,0,.11.42.39.39,0,0,0,.33.14.52.52,0,0,0,.42-.17.65.65,0,0,0,.15-.46V95.48h.33v2h-.33v-.3a.7.7,0,0,1-.64.35.63.63,0,0,1-.52-.21A.92.92,0,0,1,40.2,96.68Z" transform="translate(-2.82 -9.15)"/><path d="M43.82,95.54v.31a1.72,1.72,0,0,0-.29-.11,1.63,1.63,0,0,0-.31,0,.71.71,0,0,0-.37.07.24.24,0,0,0-.12.22.2.2,0,0,0,.09.18.91.91,0,0,0,.35.12l.11,0a1.12,1.12,0,0,1,.5.21.52.52,0,0,1,.14.38.49.49,0,0,1-.22.43,1,1,0,0,1-.6.16l-.34,0-.36-.09v-.34a1.07,1.07,0,0,0,.36.14,1,1,0,0,0,.35,0,.68.68,0,0,0,.35-.07.26.26,0,0,0,.13-.23.27.27,0,0,0-.09-.2,1,1,0,0,0-.4-.14l-.11,0a.86.86,0,0,1-.44-.2.49.49,0,0,1-.14-.36.51.51,0,0,1,.2-.43.86.86,0,0,1,.57-.16,1.87,1.87,0,0,1,.34,0Z" transform="translate(-2.82 -9.15)"/><path d="M46,96.33v1.13h-.33v-.3a.72.72,0,0,1-.28.27,1,1,0,0,1-.41.08.65.65,0,0,1-.49-.17.58.58,0,0,1-.18-.45.59.59,0,0,1,.23-.51,1.12,1.12,0,0,1,.67-.17h.46v0a.44.44,0,0,0-.15-.35.66.66,0,0,0-.42-.12,1.19,1.19,0,0,0-.33,0,1.43,1.43,0,0,0-.31.12v-.3a2.19,2.19,0,0,1,.34-.1,2,2,0,0,1,.33,0,.86.86,0,0,1,.65.23A1,1,0,0,1,46,96.33Zm-.66.14a1.19,1.19,0,0,0-.55.09.33.33,0,0,0-.15.31.32.32,0,0,0,.11.27.45.45,0,0,0,.31.1.53.53,0,0,0,.44-.19.77.77,0,0,0,.17-.51v-.07Z" transform="translate(-2.82 -9.15)"/><path d="M48.32,97.22a1.16,1.16,0,0,1-.22.75.94.94,0,0,1-.7.24l-.32,0-.3-.08v-.32a1.69,1.69,0,0,0,.28.12,1.45,1.45,0,0,0,.29,0,.65.65,0,0,0,.48-.17.69.69,0,0,0,.16-.51v-.15a.72.72,0,0,1-.26.26.89.89,0,0,1-.38.08.74.74,0,0,1-.59-.27,1.35,1.35,0,0,1,0-1.48.74.74,0,0,1,.59-.28.76.76,0,0,1,.38.09.72.72,0,0,1,.26.26v-.3h.33ZM48,96.45a1,1,0,0,0-.14-.55.5.5,0,0,0-.42-.19.49.49,0,0,0-.41.19A1.15,1.15,0,0,0,47,97a.49.49,0,0,0,.41.19.5.5,0,0,0,.42-.19A1,1,0,0,0,48,96.45Z" transform="translate(-2.82 -9.15)"/><path d="M50.37,96.3a.65.65,0,0,0-.14-.43.51.51,0,0,0-.4-.16.61.61,0,0,0-.43.15.64.64,0,0,0-.19.44Zm.33.09v.16H49.2a.72.72,0,0,0,.2.51.69.69,0,0,0,.51.18,1.42,1.42,0,0,0,.36,0,1.07,1.07,0,0,0,.36-.14v.31a1.65,1.65,0,0,1-.36.11,1.69,1.69,0,0,1-.38,0,1.05,1.05,0,0,1-.76-.27,1,1,0,0,1-.28-.75,1.08,1.08,0,0,1,.27-.77.91.91,0,0,1,.71-.29.84.84,0,0,1,.64.26A1,1,0,0,1,50.7,96.39Z" transform="translate(-2.82 -9.15)"/><path d="M53.19,94.71a4,4,0,0,0-.36.81,2.78,2.78,0,0,0-.11.81,2.71,2.71,0,0,0,.11.8,3.59,3.59,0,0,0,.36.81H52.9a3.64,3.64,0,0,1-.4-.82,2.5,2.5,0,0,1,0-1.59,3.64,3.64,0,0,1,.4-.82Z" transform="translate(-2.82 -9.15)"/><path d="M55.09,95.54v.31a1.36,1.36,0,0,0-.28-.11l-.31,0a.71.71,0,0,0-.37.07A.24.24,0,0,0,54,96a.2.2,0,0,0,.09.18.84.84,0,0,0,.35.12l.11,0a1,1,0,0,1,.49.21.54.54,0,0,1-.07.81,1,1,0,0,1-.6.16l-.34,0a2.37,2.37,0,0,1-.36-.09v-.34a1.11,1.11,0,0,0,.35.14,1.1,1.1,0,0,0,.35,0,.7.7,0,0,0,.36-.07.26.26,0,0,0,.12-.23.24.24,0,0,0-.09-.2.91.91,0,0,0-.39-.14l-.11,0a.86.86,0,0,1-.44-.2.45.45,0,0,1-.14-.36.51.51,0,0,1,.2-.43.86.86,0,0,1,.57-.16,1.87,1.87,0,0,1,.34,0A2,2,0,0,1,55.09,95.54Z" transform="translate(-2.82 -9.15)"/><path d="M57.1,96.3a.61.61,0,0,0-.15-.43.5.5,0,0,0-.39-.16.63.63,0,0,0-.44.15.69.69,0,0,0-.19.44Zm.33.09v.16H55.92a.73.73,0,0,0,.21.51.68.68,0,0,0,.5.18,1.5,1.5,0,0,0,.37,0,1,1,0,0,0,.35-.14v.31a1.37,1.37,0,0,1-.36.11,1.55,1.55,0,0,1-.37,0,1,1,0,0,1-.76-.27,1,1,0,0,1-.28-.75,1.12,1.12,0,0,1,.26-.77,1,1,0,0,1,.72-.29.84.84,0,0,1,.64.26A1,1,0,0,1,57.43,96.39Z" transform="translate(-2.82 -9.15)"/><path d="M59.61,97.22a1.1,1.1,0,0,1-.23.75.9.9,0,0,1-.69.24l-.33,0-.3-.08v-.32a1.78,1.78,0,0,0,.29.12,1.35,1.35,0,0,0,.29,0,.65.65,0,0,0,.48-.17.74.74,0,0,0,.16-.51v-.15a.81.81,0,0,1-.26.26.89.89,0,0,1-.38.08.72.72,0,0,1-.59-.27,1.31,1.31,0,0,1,0-1.48.73.73,0,0,1,.59-.28.76.76,0,0,1,.38.09.81.81,0,0,1,.26.26v-.3h.33Zm-.33-.77a.9.9,0,0,0-.15-.55.48.48,0,0,0-.41-.19.49.49,0,0,0-.41.19,1.08,1.08,0,0,0,0,1.1.49.49,0,0,0,.41.19.48.48,0,0,0,.41-.19A.9.9,0,0,0,59.28,96.45Z" transform="translate(-2.82 -9.15)"/><path d="M61.84,95.86a.82.82,0,0,1,.29-.32.75.75,0,0,1,.4-.11.58.58,0,0,1,.48.22,1,1,0,0,1,.17.62v1.19h-.33V96.28a.74.74,0,0,0-.1-.43.36.36,0,0,0-.31-.13.47.47,0,0,0-.4.17.64.64,0,0,0-.15.45v1.12h-.33V96.28a.74.74,0,0,0-.1-.43.37.37,0,0,0-.31-.13.5.5,0,0,0-.41.17.69.69,0,0,0-.14.45v1.12h-.33v-2h.33v.31a.71.71,0,0,1,.64-.36.62.62,0,0,1,.37.11A.72.72,0,0,1,61.84,95.86Z" transform="translate(-2.82 -9.15)"/><path d="M65.21,96.3a.61.61,0,0,0-.15-.43.48.48,0,0,0-.39-.16.59.59,0,0,0-.43.15.64.64,0,0,0-.19.44Zm.33.09v.16H64a.77.77,0,0,0,.21.51.69.69,0,0,0,.51.18,1.49,1.49,0,0,0,.36,0,1,1,0,0,0,.35-.14v.31a1.37,1.37,0,0,1-.36.11,1.55,1.55,0,0,1-.37,0,1.05,1.05,0,0,1-.76-.27,1,1,0,0,1-.28-.75,1.12,1.12,0,0,1,.26-.77,1,1,0,0,1,.72-.29.84.84,0,0,1,.64.26A1,1,0,0,1,65.54,96.39Z" transform="translate(-2.82 -9.15)"/><path d="M67.74,96.27v1.19h-.33V96.28a.68.68,0,0,0-.11-.42.39.39,0,0,0-.33-.14.51.51,0,0,0-.42.17.65.65,0,0,0-.16.45v1.12h-.32v-2h.32v.31a.8.8,0,0,1,.28-.27.88.88,0,0,1,.37-.09.65.65,0,0,1,.52.22A.94.94,0,0,1,67.74,96.27Z" transform="translate(-2.82 -9.15)"/><path d="M68.71,94.92v.56h.68v.25h-.68v1.08a.49.49,0,0,0,.07.31.37.37,0,0,0,.27.07h.34v.27h-.34a.7.7,0,0,1-.52-.14.68.68,0,0,1-.14-.51V95.73h-.24v-.25h.24v-.56Z" transform="translate(-2.82 -9.15)"/><path d="M72.64,96.27v1.19h-.33V96.28a.68.68,0,0,0-.11-.42.37.37,0,0,0-.33-.14.51.51,0,0,0-.42.17.64.64,0,0,0-.15.45v1.12H71v-2h.33v.31a.77.77,0,0,1,.27-.27.88.88,0,0,1,.37-.09.65.65,0,0,1,.52.22A.94.94,0,0,1,72.64,96.27Z" transform="translate(-2.82 -9.15)"/><path d="M74.08,95.43Zm-.82,1.25v-1.2h.33v1.19a.62.62,0,0,0,.11.42.39.39,0,0,0,.33.14.52.52,0,0,0,.42-.17.65.65,0,0,0,.15-.46V95.48h.33v2H74.6v-.3a.7.7,0,0,1-.64.35.64.64,0,0,1-.52-.21A.92.92,0,0,1,73.26,96.68Z" transform="translate(-2.82 -9.15)"/><path d="M77.16,95.86a.91.91,0,0,1,.29-.32.76.76,0,0,1,.41-.11.57.57,0,0,1,.47.22,1,1,0,0,1,.17.62v1.19h-.32V96.28a.74.74,0,0,0-.11-.43.35.35,0,0,0-.31-.13.48.48,0,0,0-.4.17.64.64,0,0,0-.15.45v1.12h-.32V96.28a.74.74,0,0,0-.11-.43.36.36,0,0,0-.31-.13.48.48,0,0,0-.4.17.64.64,0,0,0-.15.45v1.12h-.33v-2h.33v.31a.87.87,0,0,1,.27-.27.72.72,0,0,1,.37-.09.62.62,0,0,1,.37.11A.65.65,0,0,1,77.16,95.86Z" transform="translate(-2.82 -9.15)"/><path d="M79.48,95.78a.69.69,0,0,1,.25-.26.79.79,0,0,1,.38-.09.72.72,0,0,1,.59.29,1.35,1.35,0,0,1,0,1.51.72.72,0,0,1-.59.28.92.92,0,0,1-.38-.08.63.63,0,0,1-.25-.26v.29h-.33V94.71h.33Zm1.11.69a.93.93,0,0,0-.15-.56.52.52,0,0,0-.82,0,.93.93,0,0,0-.14.56,1,1,0,0,0,.14.57.52.52,0,0,0,.82,0A1,1,0,0,0,80.59,96.47Z" transform="translate(-2.82 -9.15)"/><path d="M82.85,96.3a.61.61,0,0,0-.15-.43.5.5,0,0,0-.39-.16.59.59,0,0,0-.43.15.64.64,0,0,0-.19.44Zm.33.09v.16H81.67a.73.73,0,0,0,.21.51.69.69,0,0,0,.51.18,1.49,1.49,0,0,0,.36,0,1,1,0,0,0,.35-.14v.31a1.37,1.37,0,0,1-.36.11,1.55,1.55,0,0,1-.37,0,1,1,0,0,1-.76-.27,1,1,0,0,1-.28-.75,1.12,1.12,0,0,1,.26-.77,1,1,0,0,1,.72-.29.84.84,0,0,1,.64.26A1,1,0,0,1,83.18,96.39Z" transform="translate(-2.82 -9.15)"/><path d="M84.87,95.79a.22.22,0,0,0-.12-.05l-.14,0a.56.56,0,0,0-.43.18.79.79,0,0,0-.15.52v1h-.32v-2H84v.31a.7.7,0,0,1,.27-.27.86.86,0,0,1,.41-.09h.16Z" transform="translate(-2.82 -9.15)"/><path d="M85.26,96.54h2.28v.3H85.26Zm0-.72h2.28v.29H85.26Z" transform="translate(-2.82 -9.15)"/><polygon points="85.57 88.01 86.16 88.01 86.16 85.99 85.52 86.12 85.52 85.79 86.15 85.67 86.51 85.67 86.51 88.01 87.1 88.01 87.1 88.31 85.57 88.31 85.57 88.01"/><path d="M91.41,94.77a.76.76,0,0,1,.68.36,2.27,2.27,0,0,1,0,2,.78.78,0,0,1-.68.35.79.79,0,0,1-.69-.35,2.35,2.35,0,0,1,0-2A.78.78,0,0,1,91.41,94.77Zm0,.29a.45.45,0,0,0-.42.27,1.87,1.87,0,0,0-.14.81A1.89,1.89,0,0,0,91,97a.46.46,0,0,0,.84,0,1.89,1.89,0,0,0,.14-.82,1.87,1.87,0,0,0-.14-.81A.45.45,0,0,0,91.41,95.06Z" transform="translate(-2.82 -9.15)"/><path d="M92.86,94.71h.29a3.58,3.58,0,0,1,.39.82,2.33,2.33,0,0,1,0,1.59,3.58,3.58,0,0,1-.39.82h-.29a3.59,3.59,0,0,0,.36-.81,3.09,3.09,0,0,0,.11-.8,3.16,3.16,0,0,0-.11-.81A4,4,0,0,0,92.86,94.71Z" transform="translate(-2.82 -9.15)"/></g><text x="-2.82" y="-9.15"/><g class="cls-26"><g class="cls-26"><g class="cls-26"><g class="cls-27"><g class="cls-28"><rect class="cls-29" x="51.51" y="12.3" width="121.42" height="2.2"/></g></g></g><rect class="cls-30" x="55.36" y="31.09" width="24.62" height="2.25"/><text class="cls-31" transform="translate(113.19 12.87)"> </text><text class="cls-31" transform="translate(114.04 13.74)">…</text><text class="cls-32" transform="translate(74.19 5.69)">Preprocessing Pipeline</text><rect class="cls-30" x="59.41" y="12.32" width="16.64" height="2.2"/><rect class="cls-30" x="108.93" y="12.44" width="16.49" height="2.2"/><text class="cls-33" transform="translate(59.5 14.12)">T</text><text class="cls-34" transform="translate(60.77 14.12)">A</text><text class="cls-33" transform="translate(62.04 14.12)">C</text><text class="cls-34" transform="translate(63.31 14.12)">A</text><text class="cls-33" transform="translate(64.58 14.12)"><tspan class="cls-35">GG</tspan><tspan x="2.54" y="0">C</tspan></text><text class="cls-34" transform="translate(68.39 14.12)">A</text><rect class="cls-30" x="150.35" y="12.3" width="15.74" height="2.2"/><text class="cls-36" transform="translate(59.58 61.5)"><tspan class="cls-37">Bat</tspan><tspan x="3.02" y="0">c</tspan></text><text class="cls-36" transform="translate(63.57 61.5)">h</text><text class="cls-38" transform="translate(64.79 62.09)">1</text><g class="cls-26"><path class="cls-39" d="M79.16,40.14a4.66,4.66,0,0,1,0-.51h1.69s0-.23,0-.52a4.78,4.78,0,0,0,0,.52h1.69s0,.23,0,.51" transform="translate(-2.82 -9.15)"/></g><text class="cls-40" transform="translate(51.51 29.3)">distal_radius</text><g class="cls-26"><path class="cls-39" d="M128.23,24.23a2.36,2.36,0,0,1,0,.59H120a2.24,2.24,0,0,0,0,.58,1.66,1.66,0,0,0,0-.58h-8.15a1.74,1.74,0,0,1-.05-.59" transform="translate(-2.82 -9.15)"/><path class="cls-39" d="M78.71,24.07a2.24,2.24,0,0,1,0,.58H70.51a2.36,2.36,0,0,0,0,.59,1.74,1.74,0,0,0,0-.59H62.27a1.66,1.66,0,0,1-.05-.58" transform="translate(-2.82 -9.15)"/></g><text class="cls-40" transform="translate(59.95 36.32)">segment_center</text><text class="cls-34" transform="translate(150.72 14.12)">A</text><text class="cls-33" transform="translate(151.99 14.12)"><tspan class="cls-35">CT</tspan><tspan x="2.54" y="0">G</tspan></text><text class="cls-34" transform="translate(155.8 14.12)">A</text><text class="cls-41" transform="translate(157.07 14.12)">T<tspan class="cls-42" x="1.27" y="0">G</tspan></text><text class="cls-34" transform="translate(159.61 14.12)">A</text><text class="cls-43" transform="translate(119.02 13.74)">…</text><text class="cls-43" transform="translate(133.12 13.74)">…</text><text class="cls-43" transform="translate(69.5 13.71)">…</text><text class="cls-43" transform="translate(160.86 13.74)">…</text><text class="cls-33" transform="translate(59.28 32.98)">T</text><text class="cls-34" transform="translate(60.55 32.98)">A</text><text class="cls-33" transform="translate(61.82 32.98)">C</text><text class="cls-34" transform="translate(63.09 32.98)">A</text><text class="cls-33" transform="translate(64.36 32.98)"><tspan class="cls-35">GG</tspan><tspan x="2.54" y="0">C</tspan></text><text class="cls-34" transform="translate(68.17 32.98)">A</text><g class="cls-26"><path class="cls-44" d="M59.13,41.38l.46-.73-1.46.73,1.46.72ZM62,41.21H59.13v.33H62Z" transform="translate(-2.82 -9.15)"/><path class="cls-44" d="M81.8,41.43l-.47.73,1.46-.73-1.46-.73Zm-2.86.16H81.8v-.33H78.94Z" transform="translate(-2.82 -9.15)"/></g><text class="cls-43" transform="translate(69.83 32.42)">…</text><g class="cls-26"><rect class="cls-45" x="50.37" y="24.38" width="122.99" height="13.52"/><rect class="cls-45" x="56.31" y="59.07" width="12.15" height="16.91"/></g><text class="cls-43" transform="translate(59.31 71.77)">…</text><text class="cls-43" transform="translate(59.28 70.18)">…</text><g class="cls-26"><rect class="cls-30" x="57.64" y="66.33" width="9.04" height="1.71"/><path class="cls-44" d="M61.47,76.34l.47-.73-1.46.73,1.46.73Zm2.85-.17H61.47v.33h2.85Z" transform="translate(-2.82 -9.15)"/><path class="cls-44" d="M68.5,76.34l-.46.73,1.46-.73L68,75.61Zm-2.85.17H68.5v-.33H65.65Z" transform="translate(-2.82 -9.15)"/></g><text class="cls-33" transform="translate(61.53 67.8)">A</text><g class="cls-26"><rect class="cls-30" x="57.83" y="62.9" width="9.04" height="1.71"/><path class="cls-44" d="M61.66,72.91l.47-.73-1.46.73,1.46.73Zm2.86-.17H61.66v.33h2.86Z" transform="translate(-2.82 -9.15)"/><path class="cls-44" d="M68.7,72.91l-.47.73,1.46-.73-1.46-.73Zm-2.86.17H68.7v-.33H65.84Z" transform="translate(-2.82 -9.15)"/></g><text class="cls-33" transform="translate(61.72 64.37)">A</text><g class="cls-26"><rect class="cls-30" x="57.64" y="73.11" width="9.04" height="1.71"/><path class="cls-44" d="M61.47,83.12l.47-.73-1.46.73,1.46.73ZM64.32,83H61.47v.33h2.85Z" transform="translate(-2.82 -9.15)"/><path class="cls-44" d="M68.5,83.12l-.46.73,1.46-.73L68,82.39Zm-2.85.17H68.5V83H65.65Z" transform="translate(-2.82 -9.15)"/></g><text class="cls-33" transform="translate(61.53 74.58)">A</text><text class="cls-43" transform="translate(90.66 13.71)">…</text><text class="cls-43" transform="translate(52.44 13.54)">…</text><g class="cls-26"><line class="cls-46" x1="75.9" y1="12.32" x2="75.9" y2="14.52"/><line class="cls-47" x1="75.9" y1="12.32" x2="75.9" y2="14.52"/><line class="cls-46" x1="150.35" y1="12.3" x2="150.35" y2="14.51"/><line class="cls-47" x1="150.35" y1="12.3" x2="150.35" y2="14.51"/><line class="cls-46" x1="166.09" y1="12.3" x2="166.09" y2="14.51"/><line class="cls-47" x1="166.09" y1="12.3" x2="166.09" y2="14.51"/><line class="cls-46" x1="59.41" y1="12.28" x2="59.41" y2="14.48"/><line class="cls-47" x1="59.41" y1="12.28" x2="59.41" y2="14.48"/><path class="cls-48" d="M15.43,87.36c-1.19,0-2.15-.15-2.15-.34V10.31c0-.18,1-.33,2.15-.33H175.29c1.19,0,2.15.15,2.15.33V87c0,.19-1,.34-2.15.34Z" transform="translate(-2.82 -9.15)"/></g><text class="cls-33" transform="translate(109.69 14.13)">G</text><text class="cls-49" transform="translate(110.96 14.13)">A<tspan class="cls-42" x="1.27" y="0">A</tspan></text><text class="cls-41" transform="translate(113.5 14.13)">G<tspan class="cls-42" x="1.27" y="0">C</tspan></text><text class="cls-34" transform="translate(116.04 14.13)">AT</text><g class="cls-26"><line class="cls-46" x1="108.93" y1="12.44" x2="108.93" y2="14.64"/><line class="cls-47" x1="108.93" y1="12.44" x2="108.93" y2="14.64"/><line class="cls-46" x1="125.42" y1="12.44" x2="125.42" y2="14.64"/><line class="cls-47" x1="125.42" y1="12.44" x2="125.42" y2="14.64"/><path class="cls-39" d="M168.9,24.23a2.36,2.36,0,0,1,0,.59h-7.78a2.24,2.24,0,0,0,0,.58,1.66,1.66,0,0,0,0-.58h-7.78a2.36,2.36,0,0,1,0-.59" transform="translate(-2.82 -9.15)"/></g><text class="cls-50" transform="translate(61.69 18.42)">s<tspan class="cls-51" x="1.18" y="0">egmen</tspan><tspan x="9.29" y="0">t</tspan></text><text class="cls-52" transform="translate(13.04 9.77)">S<tspan class="cls-53" x="1.69" y="0">ampled segment</tspan><tspan x="21.55" y="0">s</tspan></text><text class="cls-38" transform="translate(72.33 18.81)">i</text><text class="cls-50" transform="translate(112.45 18.22)">s<tspan class="cls-51" x="1.18" y="0">egmen</tspan><tspan x="9.29" y="0">t</tspan></text><text class="cls-38" transform="translate(123.09 18.61)">i+1</text><text class="cls-50" transform="translate(151.54 18.61)">s<tspan class="cls-51" x="1.18" y="0">egmen</tspan><tspan x="9.29" y="0">t</tspan></text><text class="cls-38" transform="translate(162.19 19.01)">i+2</text><g class="cls-26"><path class="cls-39" d="M78.79,42.5a2,2,0,0,1-.05.58H70.59a1.69,1.69,0,0,0,0,.59,1.69,1.69,0,0,0-.05-.59H62.34a1.66,1.66,0,0,1-.05-.58" transform="translate(-2.82 -9.15)"/><path class="cls-39" d="M58.35,40.21a4.91,4.91,0,0,1,0-.52h1.69s0-.23,0-.51a4.66,4.66,0,0,0,0,.51h1.69s0,.24,0,.52" transform="translate(-2.82 -9.15)"/></g><text class="cls-40" transform="translate(72.37 29.3)">distal_radius</text><g class="cls-26"><rect class="cls-30" x="106.43" y="30.93" width="23.62" height="2.25"/></g><text class="cls-43" transform="translate(120.9 32.25)">…</text><g class="cls-26"><path class="cls-44" d="M131.87,41.26l-.47.73,1.46-.73-1.46-.73Zm-2.86.17h2.86v-.34H129Z" transform="translate(-2.82 -9.15)"/><path class="cls-44" d="M110.24,41.26l.47-.73-1.46.73,1.46.73Zm2.85-.17h-2.85v.34h2.85Z" transform="translate(-2.82 -9.15)"/></g><text class="cls-33" transform="translate(111.46 32.84)">G</text><text class="cls-49" transform="translate(112.73 32.84)">A<tspan class="cls-42" x="1.27" y="0">A</tspan></text><text class="cls-41" transform="translate(115.27 32.84)">G<tspan class="cls-42" x="1.27" y="0">C</tspan></text><text class="cls-34" transform="translate(117.81 32.84)">AT</text><g class="cls-26"><rect class="cls-30" x="146.41" y="31.15" width="23.62" height="2.25"/></g><text class="cls-43" transform="translate(160.88 32.47)">…</text><g class="cls-26"><path class="cls-44" d="M171.85,41.48l-.47.73,1.46-.73-1.46-.73Zm-2.85.16h2.85v-.33H169Z" transform="translate(-2.82 -9.15)"/><path class="cls-44" d="M150.22,41.48l.47-.73-1.46.73,1.46.73Zm2.86-.17h-2.86v.33h2.86Z" transform="translate(-2.82 -9.15)"/></g><text class="cls-34" transform="translate(150.72 32.84)">A</text><text class="cls-33" transform="translate(151.99 32.84)"><tspan class="cls-35">CT</tspan><tspan x="2.54" y="0">G</tspan></text><text class="cls-34" transform="translate(155.8 32.84)">A</text><text class="cls-41" transform="translate(157.07 32.84)">T<tspan class="cls-42" x="1.27" y="0">G</tspan></text><text class="cls-34" transform="translate(159.61 32.84)">A</text><g class="cls-26"><rect class="cls-30" x="55.98" y="46.03" width="9.04" height="1.71"/><path class="cls-44" d="M59.81,56l.46-.73L58.81,56l1.46.73Zm2.85-.17H59.81v.33h2.85Z" transform="translate(-2.82 -9.15)"/><path class="cls-44" d="M66.84,56l-.46.73L67.84,56l-1.46-.73ZM64,56.21h2.85v-.33H64Z" transform="translate(-2.82 -9.15)"/></g><text class="cls-33" transform="translate(59.87 47.5)">A</text><g class="cls-26"><rect class="cls-30" x="58.08" y="48.25" width="9.04" height="1.71"/><path class="cls-44" d="M61.91,58.26l.46-.73-1.46.73,1.46.73Zm2.85-.16H61.91v.33h2.85Z" transform="translate(-2.82 -9.15)"/><path class="cls-44" d="M68.94,58.27l-.46.73,1.46-.73-1.46-.73Zm-2.85.16h2.85V58.1H66.09Z" transform="translate(-2.82 -9.15)"/></g><text class="cls-33" transform="translate(61.97 49.73)">A</text><g class="cls-26"><rect class="cls-30" x="63.27" y="50.62" width="9.04" height="1.71"/><path class="cls-44" d="M67.1,60.63l.47-.73-1.46.73,1.46.73ZM70,60.46H67.1v.33H70Z" transform="translate(-2.82 -9.15)"/><path class="cls-44" d="M74.13,60.63l-.46.73,1.46-.73-1.46-.73Zm-2.85.17h2.85v-.33H71.28Z" transform="translate(-2.82 -9.15)"/></g><text class="cls-33" transform="translate(67.16 52.09)">A</text><text class="cls-43" transform="translate(73 53.67)">…</text><g class="cls-26"><rect class="cls-30" x="107.66" y="46.03" width="9.04" height="1.71"/><path class="cls-44" d="M111.49,56l.47-.73L110.5,56l1.46.73Zm2.86-.17h-2.86v.34h2.86Z" transform="translate(-2.82 -9.15)"/><path class="cls-44" d="M118.53,56.05l-.47.73,1.46-.73-1.46-.73Zm-2.86.16h2.86v-.33h-2.86Z" transform="translate(-2.82 -9.15)"/></g><text class="cls-33" transform="translate(111.55 47.5)">A</text><g class="cls-26"><rect class="cls-30" x="109.14" y="48.39" width="9.04" height="1.71"/><path class="cls-44" d="M113,58.4l.47-.73L112,58.4l1.46.73Zm2.86-.16H113v.33h2.86Z" transform="translate(-2.82 -9.15)"/><path class="cls-44" d="M120,58.41l-.47.73,1.46-.73-1.46-.73Zm-2.86.16H120v-.33h-2.86Z" transform="translate(-2.82 -9.15)"/></g><text class="cls-33" transform="translate(113.03 49.87)">A</text><g class="cls-26"><rect class="cls-30" x="112.93" y="50.95" width="9.04" height="1.71"/><path class="cls-44" d="M116.76,61l.47-.73-1.46.73,1.46.73Zm2.86-.16h-2.85v.33h2.85Z" transform="translate(-2.82 -9.15)"/><path class="cls-44" d="M123.8,61l-.47.73,1.46-.73-1.46-.73Zm-2.86.17h2.86V60.8h-2.86Z" transform="translate(-2.82 -9.15)"/></g><text class="cls-33" transform="translate(116.83 52.43)">A</text><g class="cls-26"><rect class="cls-30" x="145.92" y="46.15" width="9.04" height="1.71"/><path class="cls-44" d="M149.75,56.16l.47-.73-1.46.73,1.46.73Zm2.86-.17h-2.86v.34h2.86Z" transform="translate(-2.82 -9.15)"/><path class="cls-44" d="M156.78,56.17l-.46.73,1.46-.73-1.46-.73Zm-2.85.16h2.85V56h-2.85Z" transform="translate(-2.82 -9.15)"/></g><text class="cls-33" transform="translate(149.81 47.62)">A</text><g class="cls-26"><rect class="cls-30" x="151.29" y="48.51" width="9.04" height="1.71"/><path class="cls-44" d="M155.12,58.52l.47-.73-1.46.73,1.46.73Zm2.85-.16h-2.85v.33H158Z" transform="translate(-2.82 -9.15)"/><path class="cls-44" d="M162.15,58.53l-.46.73,1.46-.73-1.46-.73Zm-2.85.16h2.85v-.33H159.3Z" transform="translate(-2.82 -9.15)"/></g><text class="cls-33" transform="translate(155.18 49.99)">A</text><g class="cls-26"><rect class="cls-30" x="155.08" y="50.64" width="9.04" height="1.71"/><path class="cls-44" d="M158.91,60.65l.47-.73-1.46.73,1.46.73Zm2.86-.16h-2.86v.33h2.86Z" transform="translate(-2.82 -9.15)"/><path class="cls-44" d="M165.94,60.66l-.46.73,1.46-.73-1.46-.73Zm-2.85.16h2.85v-.33h-2.85Z" transform="translate(-2.82 -9.15)"/></g><text class="cls-33" transform="translate(158.97 52.12)">A</text><text class="cls-54" transform="translate(13.04 41.77)"><tspan class="cls-55" xml:space="preserve">Extract samples in  segment</tspan><tspan x="34.09" y="0">s</tspan></text><text class="cls-43" transform="translate(123.24 53.67)">…</text><text class="cls-43" transform="translate(164.58 53.67)">…</text><g class="cls-26"><rect class="cls-45" x="50.37" y="39.49" width="122.99" height="15.43"/><rect class="cls-45" x="50.37" y="57.43" width="122.57" height="19.41"/></g><text class="cls-54" transform="translate(13.04 59.24)"><tspan class="cls-55">Batch load samples</tspan><tspan x="23.62" y="0"> </tspan></text><text class="cls-36" transform="translate(81.78 61.56)"><tspan class="cls-37">Bat</tspan><tspan x="3.02" y="0">c</tspan></text><text class="cls-36" transform="translate(85.77 61.56)">h</text><text class="cls-38" transform="translate(86.99 62.15)">2</text><g class="cls-26"><rect class="cls-45" x="78.52" y="59.07" width="12.15" height="16.96"/></g><text class="cls-43" transform="translate(81.52 71.83)">…</text><text class="cls-43" transform="translate(81.48 70.24)">…</text><g class="cls-26"><rect class="cls-30" x="79.84" y="66.38" width="9.04" height="1.71"/><path class="cls-44" d="M83.67,76.39l.47-.73-1.46.73,1.46.73Zm2.86-.16H83.67v.33h2.86Z" transform="translate(-2.82 -9.15)"/><path class="cls-44" d="M90.71,76.4l-.47.73,1.46-.73-1.46-.73Zm-2.86.17h2.86v-.34H87.85Z" transform="translate(-2.82 -9.15)"/></g><text class="cls-33" transform="translate(83.74 67.86)">A</text><g class="cls-26"><rect class="cls-30" x="80.04" y="62.95" width="9.04" height="1.71"/><path class="cls-44" d="M83.87,73l.46-.73L82.87,73l1.46.73Zm2.85-.16H83.87v.33h2.85Z" transform="translate(-2.82 -9.15)"/><path class="cls-44" d="M90.9,73l-.47.73L91.89,73l-1.46-.73Zm-2.85.17H90.9V72.8H88.05Z" transform="translate(-2.82 -9.15)"/></g><text class="cls-33" transform="translate(83.93 64.43)">A</text><g class="cls-26"><rect class="cls-30" x="79.84" y="73.17" width="9.04" height="1.71"/><path class="cls-44" d="M83.67,83.18l.47-.73-1.46.73,1.46.73ZM86.53,83H83.67v.33h2.86Z" transform="translate(-2.82 -9.15)"/><path class="cls-44" d="M90.71,83.18l-.47.73,1.46-.73-1.46-.73Zm-2.86.17h2.86V83H87.85Z" transform="translate(-2.82 -9.15)"/></g><text class="cls-33" transform="translate(83.74 74.64)">A</text><text class="cls-43" transform="translate(112.86 66.88)">…</text><text class="cls-36" transform="translate(154.28 61.37)"><tspan class="cls-37">Bat</tspan><tspan x="3.02" y="0">c</tspan></text><text class="cls-36" transform="translate(158.27 61.37)">h</text><text class="cls-38" transform="translate(159.52 61.96)">n</text><g class="cls-26"><rect class="cls-45" x="151.45" y="59.07" width="12.15" height="16.77"/></g><text class="cls-43" transform="translate(154.45 71.63)">…</text><text class="cls-43" transform="translate(154.41 70.05)">…</text><g class="cls-26"><rect class="cls-30" x="152.77" y="66.19" width="9.04" height="1.71"/><path class="cls-44" d="M156.6,76.2l.47-.73-1.46.73,1.46.73Zm2.86-.16H156.6v.33h2.86Z" transform="translate(-2.82 -9.15)"/><path class="cls-44" d="M163.64,76.21l-.47.73,1.46-.73-1.46-.73Zm-2.86.16h2.86V76h-2.86Z" transform="translate(-2.82 -9.15)"/></g><text class="cls-33" transform="translate(156.67 67.66)">A</text><g class="cls-26"><rect class="cls-30" x="152.96" y="62.76" width="9.04" height="1.71"/><path class="cls-44" d="M156.8,72.77l.46-.73-1.46.73,1.46.73Zm2.85-.17H156.8v.34h2.85Z" transform="translate(-2.82 -9.15)"/><path class="cls-44" d="M163.83,72.78l-.47.73,1.46-.73-1.46-.73Zm-2.85.16h2.85v-.33H161Z" transform="translate(-2.82 -9.15)"/></g><text class="cls-33" transform="translate(156.86 64.23)">A</text><g class="cls-26"><rect class="cls-30" x="152.77" y="72.97" width="9.04" height="1.71"/><path class="cls-44" d="M156.6,83l.47-.73-1.46.73,1.46.73Zm2.86-.16H156.6v.33h2.86Z" transform="translate(-2.82 -9.15)"/><path class="cls-44" d="M163.64,83l-.47.73,1.46-.73-1.46-.73Zm-2.86.16h2.86v-.33h-2.86Z" transform="translate(-2.82 -9.15)"/></g><text class="cls-33" transform="translate(156.67 74.45)">A</text><g class="cls-26"><rect class="cls-45" x="50.37" y="7.59" width="122.99" height="12.83"/></g><text class="cls-43" transform="translate(166.77 13.74)">…</text><text class="cls-54" transform="translate(13.04 27.02)"><tspan class="cls-55">Encode segment</tspan><tspan x="19.99" y="0">s</tspan></text></g></g><text class="cls-56" transform="translate(3.88 4.16)">A</text><text x="-2.82" y="-9.15"/><text class="cls-57" transform="translate(93.85 88.67)">C</text><text class="cls-57" transform="translate(2 88.67)">B</text></svg>